<svg xmlns="http://www.w3.org/2000/svg" width="60" height="60" viewBox="0 0 60 60">
    <g>
        <g>
            <path fill="#000"
                  d="M13.75 32.5V35h-2.5v-2.5a1.25 1.25 0 0 1 2.5 0zM30 35a3.754 3.754 0 0 1-3.75 3.75v-7.5A3.754 3.754 0 0 1 30 35zm25-13.025v31.15c0 3.8-3.075 6.875-6.875 6.875H6.875A6.871 6.871 0 0 1 0 53.125v-41.25A6.87 6.87 0 0 1 6.875 5h31.15c-.35 1.2-.525 2.45-.525 3.75 0 7.575 6.175 13.75 13.75 13.75 1.3 0 2.55-.175 3.75-.525zM17.5 32.5c0-2.75-2.25-5-5-5s-5 2.25-5 5v8.125c0 1.025.85 1.875 1.875 1.875s1.875-.85 1.875-1.875V38.75h2.5v1.875c0 1.025.85 1.875 1.875 1.875s1.875-.85 1.875-1.875zM33.75 35c0-4.125-3.375-7.5-7.5-7.5h-1.875c-1.025 0-1.875.85-1.875 1.875v11.25c0 1.025.85 1.875 1.875 1.875h1.875c4.125 0 7.5-3.375 7.5-7.5zm7.5-2.8c0-.525.325-.95.725-.95h3.65c1.025 0 1.875-.85 1.875-1.875s-.85-1.875-1.875-1.875h-3.65c-2.475 0-4.475 2.1-4.475 4.7 0 2.575 2 4.675 4.475 4.675h1.05c.4 0 .725.425.725.925 0 .525-.325.95-.725.95h-3.65a1.89 1.89 0 0 0-1.875 1.875c0 1.025.85 1.875 1.875 1.875h3.65c2.475 0 4.475-2.1 4.475-4.7 0-2.575-2-4.675-4.475-4.675h-1.05c-.4 0-.725-.425-.725-.925zm10-14.7c-4.825 0-8.75-3.925-8.75-8.75S46.425 0 51.25 0 60 3.925 60 8.75s-3.925 8.75-8.75 8.75z"/>
        </g>
    </g>
</svg>
