<svg xmlns="http://www.w3.org/2000/svg" width="12" height="14" viewBox="0 0 12 14">
    <g>
        <g>
            <path fill="#000"
                  d="M2.791 2.734H.245L2.791.24zm3.838-.492c.232 0 .42.184.42.41 0 .227-.188.41-.42.41a.415.415 0 0 1-.418-.41c0-.226.187-.41.418-.41zM12 3.282v9.487c0 .68-.564 1.23-1.256 1.23H3.347c-.693 0-1.256-.55-1.256-1.23h6.562c1.155 0 2.094-.92 2.094-2.05V2.05A1.245 1.245 0 0 1 12 3.281zM9.91 1.23v9.489c0 .678-.564 1.23-1.257 1.23H1.256C.563 11.95 0 11.397 0 10.72V3.555h3.21a.415.415 0 0 0 .419-.41V0h5.024C9.346 0 9.91.552 9.91 1.23zM1.464 5.387c0 .226.188.41.42.41h1.953a.414.414 0 0 0 .419-.41.415.415 0 0 0-.419-.41H1.884a.415.415 0 0 0-.419.41zm6.979 4.921a.414.414 0 0 0-.419-.41h-6.14a.414.414 0 0 0-.42.41c0 .227.188.41.42.41h6.14a.415.415 0 0 0 .419-.41zm0-1.64a.414.414 0 0 0-.419-.41h-6.14a.414.414 0 0 0-.42.41c0 .227.188.41.42.41h6.14a.414.414 0 0 0 .419-.41zm0-1.64a.415.415 0 0 0-.419-.41h-6.14a.415.415 0 0 0-.42.41c0 .226.188.41.42.41h6.14a.414.414 0 0 0 .419-.41zm0-2.188c0-.61-.316-1.15-.795-1.47.148-.202.237-.45.237-.718 0-.678-.564-1.23-1.257-1.23-.692 0-1.256.552-1.256 1.23 0 .268.088.516.237.718-.48.32-.795.86-.795 1.47v.547c0 .226.188.41.419.41h2.791a.414.414 0 0 0 .419-.41zm-.838 0v.136H5.652V4.84c0-.528.439-.957.977-.957.54 0 .977.43.977.957z"/>
        </g>
    </g>
</svg>
