<svg xmlns="http://www.w3.org/2000/svg" width="20" height="28" viewBox="0 0 20 28">
    <g>
        <g>
            <path fill="#000"
                  d="M6.572 28v-4.301H2.788v-3.06h3.784l.028-1.414C2.788 18.503 0 15.097 0 11.142c0-4.56 3.642-8.255 8.137-8.255 1.877 0 3.67.664 5.12 1.847l1.622-1.645h-2.617V0H20v7.851h-3.016V5.225l-1.82 1.847a8.386 8.386 0 0 1 1.052 4.042c0 3.983-2.816 7.36-6.6 8.082l-.028 1.443h3.783v3.06H9.588L9.616 28zM8.108 5.946c-2.816 0-5.092 2.31-5.092 5.168 0 2.857 2.276 5.195 5.092 5.195 2.817 0 5.093-2.309 5.093-5.167 0-2.857-2.305-5.196-5.093-5.196z"/>
        </g>
    </g>
</svg>
