<svg xmlns="http://www.w3.org/2000/svg" width="14" height="14" viewBox="0 0 14 14">
    <g>
        <g>
            <path fill="#000"
                  d="M5.595 3.424C5.595 1.533 6.023 0 8.506 0c2.484 0 2.912 1.533 2.912 3.424 0 1.89-1.304 3.422-2.912 3.422-1.608 0-2.911-1.532-2.911-3.422zm8.41 8.74v.256S13.195 14 8.506 14c-4.688 0-5.498-1.58-5.498-1.58v-.346c0 .03.003.017.008-.245.062-3.207.533-4.132 3.896-4.72 0 0 .479.59 1.594.59 1.116 0 1.595-.59 1.595-.59 3.4.595 3.844 1.533 3.898 4.827.003.21.005.247.006.228zM2.101 3.455c0-1.535.348-2.78 2.365-2.78.34 0 .631.035.882.1-.465.832-.53 1.842-.53 2.649 0 .912.256 1.783.727 2.505a2.08 2.08 0 0 1-1.079.307c-1.306 0-2.365-1.245-2.365-2.78zm.99 4.584c-.667.885-.82 2.074-.852 3.82C.38 11.505 0 10.763 0 10.763v-.209c0 .017.002-.012.005-.184C.05 7.693.41 6.93 3.171 6.449c0 0 .389.479 1.295.479.038 0 .074 0 .11-.002-.576.251-1.1.601-1.485 1.113z"/>
        </g>
    </g>
</svg>
