<?xml version="1.0" encoding="iso-8859-1"?>
<!-- Generator: Adobe Illustrator 16.0.0, SVG Export Plug-In . SVG Version: 6.00 Build 0)  -->
<!DOCTYPE svg PUBLIC "-//W3C//DTD SVG 1.1//EN" "http://www.w3.org/Graphics/SVG/1.1/DTD/svg11.dtd">
<svg version="1.1" xmlns="http://www.w3.org/2000/svg" xmlns:xlink="http://www.w3.org/1999/xlink" x="0px" y="0px"
	 width="198.25px" height="69.989px" viewBox="0 0 198.25 69.989" style="enable-background:new 0 0 198.25 69.989;"
	 xml:space="preserve">
<style type="text/css">
<![CDATA[
	.st0{enable-background:new    ;}
	.st1{fill:#EF019E;}
	.st2{fill:#8F55A6;}
	.st3{fill:url(#SVGID_1_);}
	.st4{fill:url(#SVGID_2_);}
	.st5{fill:url(#SVGID_3_);}
	.st6{fill:#3D0250;}
]]>
</style>
<g id="Ellipse_1_1_" class="st0">
	<g id="Ellipse_1">
		<g>
			<linearGradient id="SVGID_1_" gradientUnits="userSpaceOnUse" x1="56.0508" y1="18.1084" x2="-0.0495" y2="54.5403">
				<stop  offset="0" style="stop-color:#EF019E"/>
				<stop  offset="1" style="stop-color:#AD0082"/>
			</linearGradient>
			<path class="st3" d="M47.419,11.991H8.582C3.84,11.991,0,15.835,0,20.579V52.07c0,4.739,3.84,8.584,8.582,8.584h4.63
				l11.235,9.335v-9.335h22.972c4.741,0,8.582-3.845,8.582-8.584V20.579C56.001,15.835,52.161,11.991,47.419,11.991z"/>
		</g>
	</g>
</g>
<g id="Shape_3_copy_1_" class="st0">
	<g id="Shape_3_copy_3_">
		<g>
			<linearGradient id="SVGID_2_" gradientUnits="userSpaceOnUse" x1="49.1777" y1="15.5303" x2="7.4197" y2="42.6483">
				<stop  offset="0" style="stop-color:#7C01EF"/>
				<stop  offset="1" style="stop-color:#64019C"/>
			</linearGradient>
			<path class="st4" d="M52.998,28.625c0-13.605-11.193-24.634-25.001-24.634C14.19,3.991,2.994,15.02,2.994,28.625
				c0,12.287,9.136,22.469,21.08,24.323v9.051l16.861-12.298C48.166,45.386,52.998,37.562,52.998,28.625z"/>
		</g>
	</g>
</g>
<g id="Shape_6_1_" class="st0">
	<g id="Shape_6">
		<g>
			<path class="st6" d="M56.659,60.286c0-0.072-0.446-0.288-0.636-0.398c-0.191-0.109-0.463-0.438-0.572-1.042
				s-0.626-1.975-0.898-2.469c-0.272-0.494-1.17-3.785-1.388-4.636s-0.925-2.661-1.006-3.072c-0.082-0.412-0.218-0.878-0.327-1.125
				s-0.327-1.206-0.436-1.509c-0.109-0.302-0.354-1.947-0.489-2.578c-0.136-0.631-1.014-3.302-1.66-4.663
				c-0.3-0.631-0.395-0.946-0.177-1.563c0-0.002,0.001-0.004,0.002-0.006c0.116,0.241,0.199,0.43,0.262,0.542
				c0.126,0.228,0.243,0.668,0.381,0.924c0.137,0.256,0.476,0.492,0.476,0.492s-0.136,0.171-0.268,0.235s-0.021,0.166,0.003,0.262
				c-0.027,0.031,0.024,0.116,0.152,0.158c0.005,0.097,0.078,0.22,0.248,0.134c0.169-0.086,0.458-0.08,0.652-0.254
				c0.194-0.175,0.237-0.284,0.26-0.411s0.052-0.323,0.234-0.545c0.182-0.223-0.036-0.349-0.239-0.571
				c-0.203-0.224-0.562-0.469-0.756-0.619c-0.195-0.151-0.346-0.289-0.445-0.547c-0.07-0.181-0.34-0.822-0.518-1.469
				c0.001-0.019,0.004-0.035,0.005-0.054c0.041-0.604,0.137-1.879,0.436-2.688c0.299-0.81,0.286-2.14,0.204-2.894
				c0.218-0.192,0.613-0.371,0.653-1.234c0.041-0.864-1.129-1.893-1.32-2.017c-0.19-0.123-0.421-0.37-0.462-0.699
				c-0.028-0.225-0.189-0.335-0.345-0.399c-0.011-0.075-0.015-0.153-0.016-0.231c-0.001-0.11,0.003-0.221,0.01-0.33
				c0.009-0.142,0.021-0.282,0.033-0.423c0.011-0.08,0.021-0.162,0.029-0.244c0.009-0.087,0.016-0.175,0.021-0.264
				c0.005-0.02,0.01-0.038,0.016-0.057c0.015-0.049,0.03-0.098,0.047-0.146c0.016-0.047,0.033-0.094,0.049-0.144l0.001-0.006
				c-0.005,0.036-0.011,0.073-0.016,0.109c-0.007,0.057-0.013,0.113-0.015,0.172c-0.002,0.058,0,0.117,0.012,0.171
				c-0.01-0.055-0.012-0.114-0.009-0.171c0.003-0.057,0.01-0.112,0.019-0.167c0.012-0.077,0.026-0.153,0.04-0.229
				c0.031-0.124,0.052-0.258,0.062-0.398c0.014-0.123,0.022-0.25,0.021-0.381c-0.001-0.059-0.004-0.118-0.009-0.178
				c-0.003-0.028,0-0.126,0.007-0.225c0.163-0.571,0.289-1.24,0.289-2.056c0-1.563-0.898-2.318-1.755-2.182
				c-1.184-0.534-2.041,0.165-2.476,0.714c-0.436,0.548-0.734,1.728-0.884,2.646c-0.052,0.321-0.131,0.75-0.216,1.188
				c-0.033,0.057-0.062,0.109-0.092,0.166c-0.002,0.012-0.005,0.022-0.008,0.034c-0.138,0.314-0.263,0.643-0.369,0.979
				c-0.119,0.378-0.214,0.771-0.263,1.152c-0.073-0.004-0.164-0.011-0.277-0.021c-0.775-0.068-1.048,0.233-1.469,0.836
				c-0.422,0.604-0.109,1.798-0.055,2.538s-0.109,2.936-0.218,3.292c-0.084,0.274-0.305,0.641-0.47,1.163
				c-0.026,0.126-0.067,0.4-0.093,0.572c-0.048,0.321-0.383,1.686-0.45,2.498s-0.571,1.997-0.67,2.254
				c-0.099,0.257-0.25,0.396-0.445,0.546c-0.195,0.151-0.553,0.396-0.756,0.62c-0.203,0.223-0.421,0.348-0.239,0.57
				c0.182,0.223,0.211,0.419,0.234,0.546s0.066,0.236,0.26,0.411c0.194,0.174,0.483,0.168,0.652,0.254s0.243-0.037,0.247-0.134
				c0.127-0.043,0.18-0.127,0.152-0.158c0.023-0.096,0.134-0.197,0.002-0.262s-0.269-0.236-0.269-0.236s0.339-0.235,0.476-0.491
				c0.138-0.256,0.255-0.696,0.381-0.924c0.048-0.086,0.107-0.214,0.184-0.377c0.003,0.023,0.006,0.047,0.007,0.07
				c0.044-0.104,0.099-0.207,0.17-0.312c-0.013,0.521,0,1.248,0.041,2.152c0.041,0.905,0.49,4.047,0.517,4.828
				c0.027,0.781-0.19,1.906-0.436,2.441c-0.952,2.208-0.857,3.36-0.83,4.76c0.027,1.398,0.667,3.099,0.667,3.538
				s-0.408,0.81-0.599,1.043c-0.19,0.232-0.653,0.822-0.476,1.33s0.19,2.359,0.19,2.359l0.163,0.041
				c-0.027-0.658,0.027-1.537,0.136-1.921c0.068,0.069,0.354,0.412,0.558,1.18c0.204,1.427,1.075,1.729,1.592,1.852
				s1.374,0.055,1.673-0.027c0.3-0.082,0.245-0.273,0.205-0.397c0.055-0.178,0.055-0.48-0.123-0.535
				c-0.177-0.055-0.442-0.212-0.769-0.604c-0.327-0.391-0.592-1.872-0.694-3.045c-0.102-1.172-0.163-2.777-0.082-3.991
				s0.306-1.79,0.428-3.127c0.123-1.337,0.531-1.708,0.816-2.51c0.286-0.803,0.51-1.481,0.531-2.119
				c0.02-0.638,0.224-0.987,0.367-1.77s0.306-2.16,0.571-3.498c0.34,0.776,1.469,3.23,1.837,3.786
				c0.367,0.556,1.245,1.934,1.612,2.695c0.367,0.761,1.02,2.057,1.265,2.324c0.245,0.268,0.143,0.68,0.245,1.79
				c0.102,1.111,1.724,3.857,2.194,4.588c0.469,0.73,0.49,1.07,0.163,1.533c-0.327,0.462-0.408,0.699-0.143,1.224
				c0.266,0.524,0.214,2.157,0.214,2.157h0.143c0.082-1.016,0.428-1.838,0.428-1.838c0.571,0.195,0.847,0.576,1.062,1.039
				s0.602,1.367,1.53,1.543c0.928,0.175,1.245,0.041,1.295,0.041c0.051,0,0.077-0.052,0.057-0.134
				c0.041-0.031,0.077-0.121,0.086-0.278C57.019,60.574,56.894,60.41,56.659,60.286z M48.938,22.595
				c0.003,0.023,0.006,0.049,0.008,0.072c0.006,0.053,0.01,0.108,0.012,0.163c-0.002-0.014-0.004-0.027-0.006-0.041
				c-0.004-0.027-0.009-0.057-0.014-0.084c-0.004-0.025-0.008-0.05-0.012-0.073C48.93,22.619,48.934,22.606,48.938,22.595z
				 M48.81,22.985c0.003-0.011,0.007-0.02,0.01-0.03c0.002,0.019,0.004,0.037,0.005,0.056c-0.005,0.022-0.011,0.045-0.018,0.067
				c-0.001,0.007-0.004,0.014-0.006,0.021C48.805,23.062,48.808,23.023,48.81,22.985z M48.786,23.216
				c0.014-0.036,0.028-0.073,0.041-0.113c0-0.002,0.001-0.004,0.002-0.006c0.002,0.103-0.003,0.207-0.015,0.308
				c-0.002,0.015-0.004,0.03-0.006,0.044c-0.009,0.067-0.021,0.133-0.036,0.195c0.003-0.117,0.004-0.236,0.001-0.354
				c0-0.003,0.001-0.005,0.001-0.008C48.779,23.26,48.782,23.237,48.786,23.216z M48.774,23.084
				c-0.001,0.02-0.003,0.039-0.005,0.059c0-0.014-0.001-0.026-0.002-0.039C48.77,23.097,48.772,23.09,48.774,23.084z M48.77,23.908
				c0.002-0.008,0.003-0.017,0.004-0.024c0.004-0.027,0.005-0.057,0.002-0.085c-0.001-0.009-0.003-0.019-0.004-0.028v-0.016
				c0.007-0.039,0.014-0.078,0.021-0.116c0.031-0.124,0.053-0.259,0.062-0.398c0.014-0.116,0.021-0.236,0.021-0.358
				c0.004-0.033,0.006-0.065,0.007-0.1v-0.011c0.006-0.018,0.012-0.037,0.018-0.056c0.001,0.004,0.001,0.009,0.002,0.013
				c0.005,0.029,0.011,0.055,0.015,0.082c0.005,0.027,0.009,0.054,0.012,0.081c0.007,0.056,0.011,0.111,0.013,0.168
				c0.003,0.107-0.003,0.214-0.016,0.317c-0.001,0.016-0.004,0.03-0.006,0.045c-0.014,0.103-0.035,0.201-0.061,0.294
				c-0.013,0.051-0.029,0.098-0.045,0.147s-0.03,0.1-0.044,0.151c-0.002,0.008-0.004,0.017-0.006,0.025
				C48.767,23.996,48.769,23.953,48.77,23.908z M43.536,23.943c0.102-0.304,0.218-0.6,0.346-0.884
				c-0.028,0.14-0.056,0.278-0.083,0.412c-0.051,0.139-0.1,0.279-0.145,0.421c-0.122,0.387-0.218,0.788-0.266,1.178
				c-0.033,0.004-0.075,0.005-0.129,0.003C43.313,24.698,43.412,24.314,43.536,23.943z M43.691,23.99
				c-0.067,0.313-0.124,0.561-0.157,0.677c-0.03,0.106-0.03,0.188-0.031,0.25c-0.01,0.042-0.021,0.083-0.031,0.125
				c-0.009,0.008-0.021,0.014-0.036,0.019C43.486,24.705,43.577,24.342,43.691,23.99z M44.024,31.799
				c-0.259,0.26-0.749,0.795-1.32,1.357c-0.041-1.193,0-1.646,0.19-2.496s0.231-1.879,0.123-2.757c0,0,0.299,0.233,0.49,0.686
				c0.307,0.731,0.449,1.331,0.707,1.92C44.473,31.1,44.282,31.538,44.024,31.799z M48.704,23.886
				c-0.001,0.002-0.001,0.003-0.002,0.005c-0.015,0.049-0.03,0.1-0.044,0.15c-0.011,0.045-0.022,0.09-0.03,0.137
				c-0.001-0.001-0.001-0.001-0.001-0.002c0,0.001-0.001,0.001-0.001,0.002l0.001,0.003c0,0.003-0.001,0.005-0.001,0.008
				c-0.002-0.008-0.004-0.015-0.007-0.021c0.001,0.002,0.003,0.005,0.005,0.008c0-0.001,0-0.002,0-0.003
				c-0.003-0.005-0.005-0.009-0.008-0.013c-0.007-0.021-0.013-0.044-0.017-0.068c-0.004-0.028-0.004-0.06,0-0.087
				c0.004-0.027,0.011-0.054,0.02-0.078c0.008-0.025,0.016-0.05,0.024-0.074c0.003,0.024,0.007,0.049,0.011,0.072
				c-0.006,0.048-0.017,0.095-0.021,0.145c0.005-0.047,0.015-0.09,0.023-0.135l0.006,0.029c-0.002-0.01-0.004-0.021-0.006-0.031
				c0.001-0.008,0.002-0.014,0.004-0.021c0.003-0.027,0.004-0.057,0.002-0.085c-0.001-0.008-0.002-0.017-0.003-0.023
				c0.003-0.009,0.006-0.017,0.009-0.026c0.011-0.035,0.021-0.072,0.03-0.111C48.702,23.738,48.703,23.812,48.704,23.886z
				 M48.693,23.57c0.001,0.012,0.001,0.023,0.002,0.035c-0.01,0.055-0.022,0.108-0.037,0.159c-0.001,0.004-0.002,0.008-0.003,0.012
				c-0.002-0.011-0.004-0.021-0.007-0.031c-0.002-0.006-0.004-0.013-0.006-0.02c0-0.028,0.003-0.057,0.006-0.085
				c0.006-0.051,0.017-0.098,0.03-0.143C48.681,23.523,48.686,23.548,48.693,23.57z M48.626,23.498
				c0.001-0.008,0.003-0.016,0.004-0.022c0.013-0.033,0.025-0.067,0.038-0.102c0.001,0.021,0.001,0.04,0.003,0.061
				c0,0.01,0.002,0.021,0.002,0.031c-0.015,0.054-0.027,0.11-0.033,0.172c-0.002,0.023-0.003,0.047-0.004,0.07
				c-0.005-0.016-0.011-0.032-0.017-0.048C48.622,23.606,48.624,23.552,48.626,23.498z M48.567,24.441
				c0.004-0.128,0.011-0.256,0.018-0.383c0.014-0.122,0.025-0.246,0.033-0.371c0.006,0.017,0.013,0.033,0.019,0.051
				c0,0.028,0.002,0.057,0.004,0.085c-0.009,0.031-0.019,0.062-0.028,0.095c-0.007,0.025-0.014,0.053-0.018,0.083
				s-0.003,0.062,0.001,0.092c0.003,0.02,0.008,0.038,0.013,0.055c0,0,0-0.001,0-0.001c-0.002-0.004-0.005-0.007-0.007-0.01
				c0.003,0.006,0.007,0.013,0.011,0.019c0.004,0.012,0.008,0.024,0.013,0.036c0,0.003-0.001,0.007-0.001,0.011
				c-0.004,0.027-0.008,0.057-0.008,0.086c0,0.029,0.003,0.061,0.013,0.083c-0.009-0.023-0.013-0.054-0.011-0.082
				c0-0.03,0.004-0.058,0.009-0.085c0-0.002,0.001-0.004,0.001-0.006c0.006,0.016,0.013,0.029,0.02,0.044
				c-0.007-0.015-0.013-0.03-0.019-0.046c0-0.004,0.001-0.007,0.002-0.01c0.013,0.021,0.025,0.042,0.038,0.062
				c-0.003-0.007-0.007-0.015-0.01-0.021c-0.009-0.015-0.018-0.029-0.026-0.043c0.009-0.047,0.021-0.092,0.033-0.136
				c0.012-0.041,0.025-0.082,0.039-0.121c-0.001,0.279-0.023,0.56-0.061,0.83c-0.013,0.1-0.03,0.195-0.046,0.294
				c-0.019-0.089-0.027-0.185-0.03-0.279C48.562,24.662,48.563,24.552,48.567,24.441z M48.458,24.591v0.065
				c-0.001,0.016-0.003,0.031-0.005,0.047c0-0.002-0.001-0.004-0.002-0.006c-0.002-0.006-0.005-0.012-0.007-0.017
				C48.448,24.65,48.453,24.62,48.458,24.591z M48.414,24.864c0,0.021,0,0.042,0.001,0.062c0-0.028,0-0.056,0.001-0.083
				c0.005-0.03,0.009-0.061,0.014-0.09c0.001-0.006,0.002-0.013,0.003-0.019c0.004,0.009,0.009,0.02,0.013,0.029
				c-0.003,0.029-0.006,0.058-0.009,0.088c-0.01,0.111-0.018,0.225-0.02,0.339c0,0.016,0,0.031,0,0.046
				c-0.006-0.052-0.01-0.104-0.012-0.157c-0.002-0.052-0.002-0.104-0.002-0.157C48.407,24.903,48.41,24.884,48.414,24.864z
				 M48.323,24.757c0-0.019,0.001-0.036,0.002-0.055c0.001,0.005,0.001,0.011,0.002,0.016C48.327,24.73,48.325,24.744,48.323,24.757
				z M48.332,24.617c0.002-0.024,0.004-0.049,0.007-0.074l0.007-0.023c0.001,0.005,0.002,0.009,0.003,0.014
				c-0.004,0.036-0.008,0.073-0.012,0.11C48.336,24.635,48.334,24.626,48.332,24.617z M48.346,25.199
				c-0.002-0.014-0.004-0.026-0.006-0.041c0.005-0.028,0.011-0.058,0.016-0.087C48.352,25.113,48.349,25.156,48.346,25.199z
				 M48.361,25.273c0.006-0.065,0.013-0.132,0.022-0.197c0.002-0.017,0.004-0.034,0.007-0.05c0.001,0.019,0.002,0.037,0.004,0.057
				c0.005,0.069,0.014,0.138,0.026,0.204c0.001,0.025,0.002,0.051,0.004,0.076c0.004,0.038,0.01,0.075,0.02,0.108
				C48.411,25.435,48.382,25.366,48.361,25.273z M48.531,25.518c-0.016-0.005-0.031-0.01-0.045-0.015
				c-0.014-0.004-0.026-0.014-0.039-0.027c-0.009-0.035-0.014-0.074-0.017-0.113c0-0.009,0-0.018,0-0.026
				c0.005,0.022,0.011,0.045,0.017,0.066c-0.007-0.028-0.013-0.058-0.018-0.087c0-0.041,0.001-0.081,0.003-0.121
				c0.006-0.109,0.018-0.217,0.032-0.324c0.002,0.039,0.004,0.078,0.007,0.116c0.008,0.107,0.023,0.215,0.051,0.309
				c-0.003,0.059-0.007,0.118-0.007,0.177c0.002-0.054,0.006-0.106,0.011-0.159c0.004-0.054,0.01-0.106,0.013-0.16
				c0.003-0.055,0.002-0.111-0.005-0.166s-0.02-0.106-0.035-0.154c-0.005-0.018-0.012-0.035-0.017-0.052c0-0.015,0-0.029,0-0.044
				c0.009-0.064,0.02-0.129,0.03-0.192c0.009-0.055,0.019-0.108,0.027-0.165v0.06c0.001,0.112,0.004,0.226,0.013,0.337
				c0.008,0.097,0.021,0.194,0.043,0.281c-0.001,0.008-0.002,0.015-0.003,0.021c-0.018,0.107-0.034,0.216-0.048,0.325L48.531,25.518
				z M48.482,24.851c0,0.001,0,0.002,0.001,0.003c0.016,0.044,0.028,0.091,0.037,0.141c0.008,0.05,0.01,0.104,0.009,0.156
				c-0.001,0.047-0.004,0.095-0.007,0.143c-0.023-0.098-0.033-0.204-0.038-0.31C48.482,24.939,48.482,24.896,48.482,24.851z
				 M48.548,25.522c0.005-0.035,0.011-0.071,0.016-0.106c0.017-0.106,0.037-0.211,0.057-0.315c0.014-0.073,0.029-0.146,0.043-0.222
				c-0.001,0.042-0.003,0.083-0.005,0.125c-0.003,0.111-0.004,0.224,0,0.337c0.003,0.077,0.01,0.154,0.022,0.229
				C48.636,25.55,48.59,25.535,48.548,25.522z"/>
		</g>
	</g>
</g>
<g id="Shape_6_copy_1_" class="st0">
	<g id="Shape_6_copy_3_">
		<g>
			<path class="st6" d="M18.7,40.37c-0.203-0.224-0.562-0.469-0.756-0.619c-0.195-0.151-0.346-0.289-0.445-0.547
				c-0.099-0.258-0.603-1.441-0.67-2.254c-0.067-0.812-0.402-2.177-0.45-2.498c-0.026-0.172-0.066-0.446-0.093-0.572
				c-0.166-0.523-0.386-0.889-0.47-1.163c-0.109-0.357-0.272-2.552-0.218-3.292c0.055-0.74,0.367-1.934-0.054-2.537
				c-0.422-0.604-0.694-0.905-1.47-0.837c-0.114,0.01-0.205,0.018-0.277,0.021c-0.049-0.382-0.144-0.774-0.263-1.152
				c-0.106-0.336-0.23-0.664-0.369-0.979c-0.002-0.011-0.005-0.022-0.008-0.034c-0.03-0.057-0.059-0.109-0.092-0.165
				c-0.085-0.439-0.164-0.868-0.216-1.188c-0.15-0.919-0.449-2.099-0.884-2.647s-1.292-1.248-2.476-0.713
				c-0.857-0.138-1.755,0.617-1.755,2.181c0,0.815,0.126,1.484,0.29,2.056c0.006,0.099,0.009,0.196,0.006,0.225
				c-0.005,0.06-0.008,0.119-0.009,0.178c-0.002,0.131,0.006,0.258,0.021,0.382c0.009,0.14,0.031,0.273,0.062,0.397
				c0.014,0.076,0.028,0.152,0.04,0.229c0.008,0.055,0.016,0.11,0.019,0.168c0.003,0.056,0.001,0.115-0.009,0.17
				c0.012-0.054,0.014-0.113,0.012-0.172c-0.002-0.058-0.008-0.114-0.015-0.171c-0.005-0.036-0.01-0.072-0.016-0.109l0.001,0.006
				c0.016,0.05,0.033,0.097,0.049,0.144c0.016,0.048,0.032,0.096,0.047,0.146c0.005,0.019,0.01,0.038,0.016,0.057
				c0.005,0.089,0.012,0.177,0.021,0.264c0,0.001,0,0.002,0,0.002c0,0,0-0.001,0-0.001c0.008,0.081,0.018,0.163,0.029,0.243
				c0.012,0.141,0.023,0.281,0.032,0.422c0.007,0.11,0.012,0.221,0.01,0.332c-0.001,0.077-0.005,0.155-0.016,0.23
				c-0.156,0.064-0.317,0.175-0.345,0.399c-0.041,0.329-0.272,0.576-0.462,0.699c-0.191,0.124-1.361,1.152-1.32,2.017
				c0.041,0.864,0.435,1.042,0.653,1.234c-0.082,0.754-0.095,2.085,0.204,2.894c0.299,0.81,0.395,2.085,0.436,2.688
				c0.001,0.019,0.004,0.036,0.005,0.054c-0.178,0.646-0.448,1.287-0.518,1.469c-0.099,0.258-0.25,0.396-0.445,0.547
				c-0.195,0.15-0.553,0.396-0.756,0.619c-0.203,0.223-0.421,0.349-0.239,0.571c0.182,0.222,0.211,0.417,0.234,0.545
				c0.023,0.127,0.066,0.236,0.26,0.41c0.194,0.175,0.483,0.169,0.652,0.255s0.243-0.037,0.247-0.134
				c0.127-0.043,0.179-0.127,0.152-0.157c0.024-0.096,0.135-0.198,0.003-0.263s-0.268-0.235-0.268-0.235s0.338-0.237,0.476-0.493
				c0.137-0.255,0.254-0.695,0.381-0.922c0.062-0.113,0.146-0.301,0.262-0.543c0.001,0.002,0.001,0.004,0.002,0.006
				c0.218,0.617,0.123,0.933-0.177,1.563c-0.646,1.361-1.524,4.032-1.66,4.663c-0.136,0.631-0.381,2.276-0.49,2.578
				s-0.327,1.263-0.436,1.509c-0.109,0.247-0.245,0.714-0.327,1.125c-0.082,0.411-0.789,2.222-1.006,3.072s-1.116,4.142-1.388,4.636
				c-0.272,0.493-0.789,1.865-0.898,2.469s-0.381,0.933-0.572,1.043c-0.19,0.109-0.636,0.325-0.636,0.397
				c-0.234,0.123-0.359,0.288-0.347,0.493c0.01,0.157,0.046,0.248,0.087,0.278c-0.02,0.082,0.005,0.134,0.056,0.134
				c0.051,0,0.368,0.134,1.296-0.041c0.929-0.176,1.316-1.08,1.531-1.543c0.214-0.464,0.49-0.844,1.061-1.039
				c0,0,0.347,0.822,0.429,1.838h0.143c0,0-0.051-1.632,0.214-2.157c0.265-0.524,0.184-0.761-0.143-1.224s-0.306-0.803,0.164-1.533
				c0.469-0.729,2.091-3.477,2.193-4.588c0.102-1.11,0-1.522,0.245-1.79c0.245-0.268,0.898-1.563,1.265-2.324
				c0.367-0.762,1.245-2.14,1.612-2.695c0.367-0.556,1.497-3.01,1.836-3.785c0.265,1.337,0.429,2.716,0.571,3.497
				c0.143,0.781,0.347,1.132,0.367,1.77s0.245,1.316,0.531,2.119c0.286,0.802,0.694,1.173,0.816,2.51
				c0.122,1.337,0.347,1.913,0.428,3.127c0.082,1.214,0.021,2.818-0.082,3.991s-0.367,2.654-0.694,3.045s-0.592,0.549-0.769,0.604
				c-0.177,0.056-0.177,0.356-0.123,0.534c-0.041,0.124-0.095,0.316,0.204,0.398c0.299,0.083,1.156,0.151,1.673,0.027
				c0.517-0.123,1.388-0.426,1.592-1.852c0.204-0.768,0.49-1.111,0.558-1.18c0.109,0.384,0.164,1.263,0.136,1.921l0.163-0.041
				c0,0,0.014-1.852,0.19-2.359s-0.286-1.098-0.476-1.331c-0.19-0.232-0.599-0.603-0.599-1.042s0.64-2.14,0.667-3.538
				c0.027-1.399,0.122-2.552-0.83-4.76c-0.245-0.535-0.462-1.66-0.436-2.441c0.027-0.781,0.477-3.923,0.517-4.828
				c0.041-0.905,0.055-1.632,0.041-2.153c0.071,0.105,0.126,0.208,0.17,0.312c0.001-0.023,0.004-0.047,0.006-0.07
				c0.077,0.163,0.136,0.291,0.184,0.377c0.126,0.228,0.243,0.668,0.38,0.924c0.138,0.255,0.477,0.491,0.477,0.491
				s-0.137,0.172-0.269,0.236s-0.021,0.166,0.003,0.263c-0.028,0.03,0.024,0.114,0.152,0.157c0.004,0.097,0.078,0.22,0.247,0.134
				c0.169-0.086,0.458-0.081,0.653-0.255c0.194-0.174,0.237-0.283,0.26-0.41c0.022-0.128,0.052-0.323,0.234-0.546
				C19.121,40.719,18.903,40.593,18.7,40.37z M8.242,24.103c0,0.014-0.001,0.027-0.002,0.04c-0.002-0.02-0.003-0.039-0.005-0.06
				C8.237,24.09,8.24,24.097,8.242,24.103z M8.19,23.955l0.01,0.029c0.002,0.039,0.004,0.076,0.008,0.114
				c-0.002-0.007-0.004-0.014-0.006-0.021c-0.006-0.021-0.012-0.045-0.017-0.067C8.186,23.992,8.188,23.974,8.19,23.955z
				 M8.183,24.103c0.013,0.04,0.027,0.077,0.042,0.113c0.003,0.021,0.007,0.044,0.01,0.065c0.001,0.003,0.001,0.005,0.001,0.008
				c-0.002,0.119-0.001,0.237,0.002,0.354c-0.014-0.062-0.026-0.128-0.036-0.194c-0.002-0.016-0.004-0.03-0.006-0.045
				c-0.012-0.101-0.018-0.204-0.015-0.308C8.181,24.099,8.182,24.101,8.183,24.103z M8.052,23.83
				c0.002-0.055,0.006-0.11,0.012-0.164c0.002-0.022,0.005-0.047,0.008-0.071c0.004,0.013,0.008,0.024,0.012,0.036
				c-0.004,0.025-0.007,0.049-0.012,0.073c-0.005,0.027-0.01,0.057-0.014,0.085C8.056,23.803,8.054,23.816,8.052,23.83z
				 M8.239,25.015c-0.014-0.052-0.029-0.102-0.044-0.151c-0.016-0.049-0.031-0.097-0.045-0.147
				c-0.026-0.093-0.047-0.191-0.061-0.294c-0.002-0.015-0.004-0.029-0.006-0.045c-0.013-0.104-0.019-0.21-0.016-0.316
				c0.001-0.057,0.006-0.113,0.013-0.168c0.003-0.028,0.008-0.055,0.012-0.081c0.004-0.028,0.01-0.055,0.015-0.082
				c0-0.005,0.002-0.01,0.002-0.014c0.006,0.019,0.012,0.037,0.018,0.056v0.011c0.001,0.033,0.003,0.066,0.007,0.099
				c-0.001,0.123,0.007,0.243,0.021,0.359c0.009,0.141,0.031,0.274,0.062,0.398c0.007,0.038,0.014,0.077,0.021,0.115v0.018
				c-0.001,0.009-0.003,0.018-0.003,0.027c-0.003,0.028-0.002,0.058,0.002,0.085c0.001,0.008,0.003,0.017,0.004,0.024
				c0.001,0.044,0.002,0.089,0.005,0.132C8.243,25.031,8.241,25.022,8.239,25.015z M8.579,25.755
				c0.004,0.029,0.009,0.059,0.014,0.088c0.001,0.028,0.001,0.056,0.001,0.084c0.001-0.021,0.001-0.042,0.002-0.062l0.009,0.059
				c0,0.053,0,0.104-0.002,0.157s-0.006,0.106-0.012,0.157c0-0.015,0-0.03,0-0.045c-0.002-0.115-0.01-0.228-0.02-0.34
				c-0.002-0.029-0.006-0.059-0.009-0.088l0.013-0.029C8.577,25.741,8.578,25.748,8.579,25.755z M8.551,25.649
				c0-0.02,0-0.039,0-0.06c0.005,0.031,0.01,0.061,0.016,0.091c-0.003,0.006-0.005,0.011-0.008,0.017
				c-0.001,0.002-0.001,0.004-0.002,0.007c-0.002-0.016-0.003-0.032-0.005-0.048V25.649z M8.339,24.434
				c0.001-0.02,0.001-0.039,0.002-0.059c0.013,0.033,0.025,0.067,0.038,0.101c0.001,0.008,0.003,0.015,0.004,0.022
				c0.002,0.054,0.004,0.108,0.007,0.162c-0.006,0.016-0.012,0.031-0.017,0.048c0-0.023-0.001-0.047-0.004-0.07
				c-0.006-0.062-0.018-0.118-0.033-0.173C8.337,24.455,8.338,24.444,8.339,24.434z M8.316,24.571
				c0.007-0.023,0.012-0.048,0.016-0.072c0.013,0.044,0.023,0.092,0.03,0.142c0.004,0.028,0.005,0.057,0.006,0.085
				c-0.002,0.007-0.004,0.014-0.006,0.021c-0.002,0.01-0.005,0.02-0.007,0.03c-0.001-0.004-0.002-0.008-0.004-0.012
				c-0.014-0.051-0.027-0.104-0.037-0.159C8.315,24.594,8.316,24.582,8.316,24.571z M8.312,24.665
				c0.009,0.038,0.019,0.076,0.03,0.111l0.009,0.026c-0.001,0.008-0.002,0.016-0.003,0.023c-0.002,0.028-0.001,0.058,0.002,0.085
				c0.001,0.007,0.002,0.014,0.003,0.02c-0.002,0.012-0.004,0.022-0.006,0.033c0.002-0.011,0.004-0.021,0.006-0.03
				c0.008,0.045,0.018,0.088,0.023,0.134c-0.004-0.049-0.014-0.096-0.021-0.144c0.004-0.023,0.008-0.048,0.011-0.072
				c0.009,0.024,0.017,0.049,0.025,0.074c0.007,0.024,0.015,0.05,0.019,0.078c0.004,0.028,0.004,0.058,0,0.087
				c-0.003,0.024-0.009,0.046-0.017,0.067c-0.002,0.005-0.005,0.01-0.008,0.014c0,0.001,0,0.002,0.001,0.003l0.004-0.009
				c-0.002,0.008-0.004,0.016-0.007,0.022c0-0.003-0.001-0.005-0.001-0.007c0-0.002,0.001-0.003,0.002-0.004
				c0,0-0.001-0.001-0.001-0.002c0,0.001,0,0.001-0.001,0.002c-0.008-0.047-0.019-0.092-0.03-0.137
				c-0.014-0.051-0.029-0.102-0.044-0.15c0-0.001-0.001-0.003-0.001-0.005C8.307,24.812,8.308,24.738,8.312,24.665z M8.307,24.928
				c0.013,0.04,0.026,0.079,0.039,0.121c0.013,0.044,0.024,0.088,0.033,0.135l-0.026,0.044c-0.003,0.007-0.007,0.015-0.01,0.021
				c0.013-0.021,0.025-0.042,0.038-0.062c0,0.003,0.001,0.006,0.002,0.009c-0.006,0.017-0.013,0.032-0.019,0.047
				c0.007-0.014,0.013-0.028,0.02-0.044c0,0.002,0.001,0.004,0.001,0.006c0.005,0.027,0.009,0.056,0.009,0.084
				c0.001,0.029-0.002,0.06-0.011,0.083c0.01-0.022,0.014-0.054,0.014-0.083c0-0.029-0.004-0.059-0.008-0.086
				c-0.001-0.004-0.001-0.007-0.002-0.011c0.005-0.012,0.009-0.023,0.013-0.035c0.004-0.007,0.007-0.014,0.011-0.02
				c-0.002,0.003-0.004,0.006-0.007,0.01c0,0,0,0.001-0.001,0.001c0.006-0.017,0.01-0.035,0.014-0.055
				c0.005-0.029,0.005-0.062,0.001-0.092c-0.004-0.03-0.011-0.058-0.018-0.084c-0.009-0.031-0.019-0.062-0.029-0.094
				c0.003-0.028,0.004-0.056,0.005-0.085c0.006-0.018,0.012-0.035,0.019-0.051c0.008,0.125,0.019,0.249,0.033,0.371
				c0.007,0.127,0.014,0.255,0.018,0.383c0.003,0.11,0.005,0.221,0,0.331c-0.003,0.095-0.012,0.19-0.03,0.279
				c-0.017-0.099-0.033-0.194-0.046-0.293C8.33,25.488,8.308,25.207,8.307,24.928z M8.328,26.569
				c0.012-0.074,0.019-0.151,0.022-0.229c0.004-0.112,0.003-0.225,0-0.336c-0.001-0.042-0.003-0.083-0.005-0.125
				c0.014,0.075,0.029,0.148,0.043,0.222c0.021,0.104,0.04,0.209,0.057,0.315c0.005,0.035,0.011,0.071,0.016,0.106
				C8.42,26.535,8.374,26.55,8.328,26.569z M8.523,26.503c-0.014,0.005-0.029,0.01-0.045,0.015
				c-0.004-0.038-0.008-0.076-0.013-0.113c-0.014-0.109-0.031-0.218-0.048-0.325c-0.001-0.008-0.002-0.015-0.003-0.022
				c0.022-0.087,0.035-0.185,0.043-0.281c0.009-0.111,0.012-0.225,0.013-0.337V25.38c0.009,0.055,0.019,0.109,0.027,0.163
				c0.011,0.064,0.021,0.129,0.03,0.193c0,0.015,0,0.029,0,0.044c-0.006,0.017-0.012,0.034-0.018,0.052
				c-0.015,0.048-0.027,0.1-0.034,0.154c-0.007,0.055-0.008,0.111-0.005,0.166c0.003,0.054,0.009,0.106,0.013,0.16
				c0.005,0.053,0.009,0.105,0.011,0.16c0-0.06-0.003-0.119-0.006-0.178c0.027-0.094,0.042-0.201,0.051-0.309
				c0.003-0.038,0.005-0.077,0.007-0.116c0.014,0.106,0.026,0.215,0.032,0.324c0.002,0.04,0.003,0.08,0.002,0.121
				c-0.004,0.029-0.01,0.059-0.018,0.087c0.006-0.021,0.012-0.044,0.017-0.066c0,0.009,0,0.018,0,0.025
				c-0.002,0.039-0.007,0.08-0.017,0.114C8.55,26.489,8.537,26.499,8.523,26.503z M8.528,25.851c0,0.045,0,0.089-0.002,0.133
				c-0.004,0.105-0.014,0.212-0.037,0.31c-0.003-0.048-0.006-0.096-0.008-0.143c-0.001-0.054,0.001-0.106,0.009-0.156
				c0.009-0.05,0.021-0.097,0.037-0.141C8.527,25.853,8.527,25.852,8.528,25.851z M8.566,26.472c0.01-0.033,0.016-0.07,0.02-0.108
				c0.002-0.025,0.004-0.051,0.005-0.076c0.012-0.066,0.021-0.135,0.026-0.204c0.002-0.02,0.003-0.038,0.004-0.057
				c0.002,0.017,0.004,0.032,0.007,0.05c0.008,0.065,0.015,0.132,0.022,0.198C8.628,26.366,8.599,26.434,8.566,26.472z
				 M8.664,26.199c-0.003-0.043-0.006-0.086-0.01-0.128c0.005,0.029,0.011,0.059,0.016,0.088
				C8.669,26.173,8.666,26.186,8.664,26.199z M8.672,25.644c-0.004-0.037-0.008-0.073-0.012-0.11
				c0.001-0.004,0.002-0.009,0.003-0.014c0.002,0.008,0.005,0.016,0.007,0.023c0.003,0.025,0.004,0.05,0.007,0.074
				C8.676,25.626,8.674,25.635,8.672,25.644z M8.682,25.718c0-0.005,0.001-0.011,0.002-0.016c0.001,0.019,0.002,0.036,0.002,0.055
				C8.685,25.744,8.683,25.73,8.682,25.718z M13.474,24.944c0.124,0.369,0.223,0.754,0.276,1.129
				c-0.054,0.002-0.097,0.001-0.129-0.003c-0.047-0.39-0.144-0.791-0.266-1.178c-0.045-0.142-0.093-0.282-0.145-0.421
				c-0.027-0.134-0.055-0.271-0.083-0.411C13.256,24.344,13.373,24.64,13.474,24.944z M13.573,26.061
				c-0.015-0.005-0.027-0.011-0.036-0.019c-0.01-0.042-0.021-0.083-0.031-0.124c-0.001-0.062,0-0.145-0.031-0.251
				c-0.033-0.116-0.09-0.363-0.157-0.677C13.433,25.343,13.523,25.705,13.573,26.061z M14.305,34.156
				c-0.571-0.562-1.062-1.097-1.319-1.357c-0.258-0.261-0.449-0.699-0.19-1.29c0.258-0.59,0.4-1.188,0.707-1.92
				c0.191-0.452,0.49-0.686,0.49-0.686c-0.108,0.878-0.068,1.906,0.123,2.757S14.346,32.963,14.305,34.156z"/>
		</g>
	</g>
</g>
<g id="Shape_3_1_" class="st0">
	<g id="Shape_3">
		<g>
			<path class="st6" d="M46.5,67.381c-0.846-0.313-0.846-1.375-0.846-2.337c0-0.875-0.454-1.24-0.485-2.024
				s-0.282-1.129-0.611-1.757c-0.329-0.627-1.395-3.969-2.005-5.632s-2.256-5.507-2.93-6.604c-0.673-1.098-0.955-2.165-1.175-2.636
				c-0.219-0.471-0.83-1.521-0.987-2.354c-0.157-0.831-1.238-4.832-1.958-7.153c-0.721-2.321-0.987-3.138-1.395-3.969
				c-0.408-0.831-0.408-2.321-0.235-3.325c0.172-1.005,0.094-2.071,0.109-3.154c0.016-1.082,0.737-2.228,1.348-4.125
				c0.611-1.898,0.814-3.044,0.814-3.295s0.486-1.224,0.548-1.93s0.125-1.584,0.689-2.714c0.563-1.129,2.005-5.412,2.256-6.729
				c0.25-1.318,0.626-3.938,0.392-4.597c-0.235-0.659-0.251-1.02-0.815-0.957s-1.425-0.031-2.444-0.031c-1.018,0-2.601,0-4.23,0.172
				c-1.629,0.173-2.068,0.188-2.381,0.063c-0.313-0.126-0.595-0.126-0.689-0.126c0.251-0.486,0.83-1.16,0.893-1.349
				s-0.11-0.471-0.423-0.424c-0.11-0.204-0.282-0.235-0.486-0.125c-0.235-0.188-0.407-0.283-0.564-0.142
				c-0.267-0.126-0.455-0.188-0.626-0.047c-0.172,0.141-0.345,0.204-0.564,0.393c-0.219,0.188-0.721,0.784-0.831,0.894
				c-0.219-0.062-0.391,0.095-0.313,0.361c-0.204-0.017-0.454,0.125-0.36,0.376c-0.188,0.094-0.282,0.235-0.204,0.393
				c-0.094,0.173-0.297,0.282-0.658,0.345c-0.361,0.063-2.977,0.926-4.136,1.35c-1.159,0.423-2.053,0.706-2.334,0.847
				c-0.282,0.142-0.94,0.377-1.207,0.502c-0.266,0.126-0.658,0.361-0.47,0.957c0.188,0.597,0.924,2.181,1.566,3.185
				s2.836,3.812,3.838,4.77c0.553,0.527,1.163,1.074,1.646,1.659c0.004,0.036,0.009,0.072,0.016,0.109
				c-0.023,0.118-0.043,0.236-0.055,0.357c-0.007,0.102-0.009,0.213,0.028,0.319c0.015,0.048,0.026,0.099,0.037,0.151
				c-0.033,0.14-0.057,0.283-0.065,0.425c-0.015,0.172-0.041,0.344-0.075,0.514c-0.033,0.171-0.074,0.341-0.097,0.515
				c-0.024,0.173-0.027,0.349-0.012,0.522c-0.007-0.174,0.004-0.349,0.035-0.519c0.031-0.171,0.079-0.338,0.12-0.508
				c0.042-0.17,0.077-0.342,0.101-0.517c0.007-0.068,0.018-0.134,0.031-0.2c0.022,0.159,0.042,0.32,0.061,0.48
				c0.024,0.196,0.047,0.393,0.081,0.59c0.019,0.097,0.036,0.196,0.078,0.292c0.037,0.087,0.057,0.184,0.073,0.279
				c0.002,0.012,0.003,0.023,0.004,0.034c-0.015,0.158-0.036,0.314-0.072,0.469c0.036-0.13,0.061-0.262,0.08-0.395
				c0.044,0.354,0.046,0.713,0.046,1.07c0.015-0.394,0.032-0.789-0.011-1.186c-0.003-0.023-0.006-0.048-0.01-0.072
				c0.022-0.201,0.036-0.403,0.056-0.604c0.017-0.198,0.033-0.397,0.063-0.593c0.003-0.017,0.003-0.032,0.005-0.048
				c0,0.148-0.006,0.299-0.014,0.449c-0.01,0.175-0.024,0.349-0.028,0.525c0,0.044-0.001,0.088,0.004,0.135
				c0.007,0.046,0.01,0.082,0.01,0.127l-0.001,0.262c-0.001,0.253,0.038,0.507,0.123,0.744c0.001,0.007,0.001,0.013,0.001,0.02
				c0-0.006,0-0.011,0-0.018c0.033,0.093,0.072,0.182,0.12,0.268c-0.05-0.103-0.089-0.209-0.12-0.317
				c-0.002-0.151,0.009-0.303,0.037-0.451c0.031-0.171,0.079-0.337,0.12-0.508c0.042-0.169,0.077-0.341,0.1-0.516
				c0.006-0.068,0.018-0.135,0.031-0.2c0.001,0.006,0.002,0.012,0.002,0.019c0,0.021-0.001,0.042-0.001,0.063
				c0.008,0.22,0.042,0.434,0.067,0.646c0.014,0.106,0.026,0.213,0.032,0.32c0.005,0.106,0.008,0.216-0.022,0.319
				c0.039-0.102,0.043-0.212,0.046-0.319c0-0.035,0-0.07-0.001-0.104c0.006,0.042,0.012,0.083,0.019,0.125
				c0.018,0.098,0.035,0.197,0.077,0.293c0.038,0.087,0.058,0.183,0.073,0.279c0.002,0.012,0.003,0.023,0.004,0.035
				c-0.014,0.157-0.036,0.313-0.072,0.467c0.036-0.129,0.061-0.261,0.081-0.395c0.044,0.354,0.045,0.714,0.046,1.072
				c0.016-0.395,0.032-0.791-0.011-1.187c-0.003-0.023-0.006-0.048-0.01-0.071c0.02-0.176,0.034-0.352,0.048-0.526
				c0.013,0.04,0.027,0.081,0.04,0.122c-0.002,0.043-0.005,0.088-0.006,0.132c-0.001,0.045-0.001,0.089,0.003,0.136
				c0.008,0.046,0.011,0.082,0.011,0.127l-0.002,0.262c-0.003,0.352,0.074,0.707,0.243,1.013c-0.155-0.313-0.213-0.666-0.195-1.012
				l0.014-0.262c0.002-0.043,0-0.094-0.005-0.134c-0.001-0.021,0.001-0.042,0.001-0.063c0.154,0.476,0.296,0.936,0.387,1.393
				c0.204,1.02,0.256,1.757-0.679,2.572c-0.763,0.666-3.718,3.347-4.721,6.84s-1.149,6.631-1.274,7.719
				c-0.125,1.087-0.25,2.845-0.271,3.283c-0.021,0.439-0.188,1.549-0.334,2.092c-0.146,0.544-0.501,2.134-0.585,2.594
				c-0.083,0.461-1.149,3.305-1.4,6.568c-0.251,3.263-0.271,4.79-0.292,5.772c-0.021,0.983-0.543,3.535-0.585,3.891
				c-0.042,0.356-0.793,1.862-0.835,2.51c-0.042,0.649-0.867,1.653-0.977,1.795c-0.109,0.141-0.047,0.486,0.016,0.533
				c0.016,0.156-0.047,0.438,0.125,0.502c0.172,0.062,0.893,0.345,1.817,0.142c0.924-0.205,1.457-0.659,1.488-1.334
				c0.032-0.675,0.251-2.338,0.486-2.558c0.031,0.69,0.141,2.212,0.141,2.996l0.172,0.032c0,0,0.016-2.887,0.455-3.844
				c0.172-0.361-0.25-1.475-0.407-1.647s-0.172-0.815,0-1.835s1.316-4.785,2.115-6.668c0.799-1.882,0.721-4.204,0.831-4.737
				c0.109-0.533,0.549-1.239,0.862-1.945c0.313-0.705,0.674-2.62,0.846-3.294c0.172-0.675,0.486-1.977,1.316-3.891
				c0.83-1.914,1.916-3.954,2.036-4.377c0.188-0.659,0.439-1.004,0.439-1.004s0.25,0.627,0.584,1.224
				c0.304,0.542,0.042,0.313,0.857,1.903c0.814,1.59,2.089,2.991,2.945,4.351s1.441,2.237,1.754,3.096
				c0.313,0.857,0.877,1.861,1.253,2.678c0.376,0.815,0.731,1.777,1.232,2.426s0.919,1.401,1.316,2.594
				c0.396,1.191,2.109,4.079,2.966,5.25c0.856,1.172,1.901,2.907,2.36,3.786c0.459,0.878,0.61,1.443,0.418,2.469
				c-0.047,0.25-0.094,0.842,0,1.045c0.094,0.204,0.136,1.151,0.199,2.939c0.156-0.031,0.204-0.016,0.204-0.016l0.156-1.883
				c0,0,0.195,0.658,0.188,1.694c-0.005,0.758,0.056,0.846,0.277,1.051c0.146,0.136,0.667,0.795,1.572,0.816
				c1.363,0.031,1.567-0.079,1.833-0.33c0.066-0.062,0.146-0.345,0.068-0.351C47.105,68.092,46.946,67.546,46.5,67.381z
				 M24.967,11.111c0.011,0.017,0.021,0.035,0.03,0.053c-0.001,0.01-0.002,0.019-0.003,0.027l-0.025,0.056
				c-0.001-0.005-0.002-0.01-0.003-0.014c-0.005-0.026-0.008-0.054-0.01-0.082C24.959,11.139,24.963,11.124,24.967,11.111z
				 M24.88,11.398c0.002-0.005,0.003-0.011,0.005-0.016c0.003,0.005,0.005,0.011,0.008,0.017c0.001,0.002,0.002,0.005,0.003,0.007
				c-0.004,0.01-0.009,0.02-0.013,0.029c-0.001-0.008-0.005-0.016-0.006-0.023C24.878,11.407,24.879,11.403,24.88,11.398z
				 M24.836,9.867c0.003,0.03,0.007,0.061,0.008,0.092c0.003,0.051,0.002,0.104,0.002,0.155c-0.003,0.021-0.007,0.043-0.011,0.064
				c-0.007-0.063-0.013-0.127-0.018-0.19C24.824,9.948,24.83,9.907,24.836,9.867z M23.814,11.031
				c-0.909-0.706-1.363-1.381-2.115-2.134s-1.159-1.13-1.19-1.192s-0.282-0.22,0.172-0.423c0.454-0.205,1.99-1.24,2.538-1.616
				c0.548-0.377,1.002-0.518,1.269-0.644c-0.003,0.037-0.005,0.075-0.007,0.112c-0.092,0.236-0.178,0.477-0.252,0.723
				c-0.051,0.171-0.097,0.344-0.13,0.523c-0.032,0.179-0.058,0.363-0.036,0.562c0.012,0.099,0.036,0.207,0.11,0.308
				c0.012,0.017,0.028,0.035,0.036,0.048c-0.018,0.076-0.034,0.153-0.046,0.232c-0.025,0.18-0.042,0.371,0.016,0.57
				c0.007,0.024,0.017,0.049,0.026,0.074l0.026,0.06l0.056,0.12c0.015,0.03,0.029,0.06,0.044,0.09
				c0.004,0.072,0.013,0.146,0.034,0.221c0.007,0.025,0.018,0.049,0.027,0.074l0.022,0.051c0.003,0.061,0.005,0.122,0.011,0.182
				c0.029,0.352,0.067,0.7,0.142,1.048c0.018,0.076,0.037,0.152,0.068,0.23c-0.006,0.102-0.009,0.204-0.004,0.31
				c0.006,0.083,0.022,0.176,0.064,0.256c-0.053,0.114-0.104,0.229-0.152,0.347c-0.043,0.104-0.084,0.21-0.123,0.317
				C24.229,11.344,24.028,11.197,23.814,11.031z M24.456,6.302c-0.013,0.04-0.026,0.079-0.039,0.12
				c-0.032,0.105-0.06,0.212-0.085,0.32c0.009-0.099,0.027-0.202,0.05-0.303c0.021-0.09,0.046-0.179,0.073-0.268
				C24.455,6.215,24.455,6.258,24.456,6.302z M24.337,16.77c-0.005-0.058-0.001-0.118,0.005-0.179
				c0.007-0.053,0.016-0.104,0.026-0.157c0.013,0.02,0.026,0.04,0.039,0.062C24.386,16.587,24.362,16.678,24.337,16.77z
				 M24.681,17.636c-0.022,0.2-0.031,0.4-0.04,0.6c-0.009,0.171-0.015,0.344-0.025,0.515c-0.01-0.043-0.021-0.087-0.038-0.13
				c-0.035-0.087-0.048-0.186-0.062-0.281c-0.026-0.194-0.041-0.391-0.057-0.587c-0.016-0.197-0.03-0.395-0.053-0.592
				c-0.007-0.061-0.016-0.119-0.026-0.179c0-0.001,0-0.002,0.001-0.004c0.036-0.109,0.071-0.222,0.105-0.334
				c0.062,0.132,0.11,0.271,0.146,0.414C24.679,17.247,24.705,17.442,24.681,17.636z M24.56,16.534
				c0.05,0.074,0.099,0.148,0.144,0.224c0.001,0.076,0.003,0.152,0.01,0.229C24.677,16.832,24.626,16.681,24.56,16.534z
				 M24.738,11.7c-0.015-0.011-0.03-0.021-0.045-0.031c0.021-0.055,0.043-0.108,0.066-0.162c0,0.011,0.001,0.021,0.001,0.032
				C24.75,11.592,24.743,11.646,24.738,11.7z M25.035,18.31c-0.015,0.172-0.042,0.344-0.075,0.514s-0.075,0.341-0.098,0.515
				c-0.02,0.146-0.024,0.294-0.017,0.44c-0.061-0.222-0.083-0.453-0.071-0.682l0.014-0.262c0.002-0.043,0-0.094-0.005-0.134
				c-0.001-0.041,0-0.084,0.003-0.126c0.012-0.173,0.034-0.347,0.051-0.521c0.033-0.327,0.059-0.669,0.024-1.001
				c0.07,0.145,0.127,0.291,0.171,0.442c-0.002,0.077,0.004,0.158,0.031,0.237c0.015,0.047,0.027,0.099,0.037,0.151
				C25.067,18.024,25.042,18.168,25.035,18.31z M25.16,10.683C25.16,10.682,25.161,10.682,25.16,10.683
				c0.009,0.043,0.02,0.089,0.031,0.133c0,0.011,0,0.021,0,0.032c-0.012-0.025-0.023-0.051-0.035-0.075
				C25.157,10.742,25.158,10.713,25.16,10.683z M25.215,12.026c0,0-0.001,0-0.002-0.001l-0.044-0.17
				c0.014-0.021,0.029-0.042,0.044-0.063c0.006,0.057,0.009,0.112,0.005,0.168C25.216,11.982,25.216,12.005,25.215,12.026z
				 M25.284,11.967c0.004-0.029,0.004-0.059,0.004-0.089c0.005,0.068,0.007,0.137,0.008,0.206c-0.007-0.005-0.014-0.011-0.021-0.016
				C25.279,12.035,25.28,12,25.284,11.967z M25.476,19.072c-0.009,0.171-0.015,0.344-0.025,0.515
				c-0.01-0.044-0.022-0.087-0.039-0.13c-0.035-0.088-0.048-0.186-0.062-0.281c-0.026-0.194-0.041-0.391-0.057-0.588
				c-0.005-0.063-0.01-0.127-0.015-0.19c0.065,0.217,0.131,0.429,0.199,0.637C25.478,19.047,25.477,19.06,25.476,19.072z
				 M25.535,11.463c-0.004-0.016-0.007-0.032-0.012-0.048c-0.006-0.026-0.009-0.054-0.014-0.081
				c0.013,0.028,0.026,0.056,0.038,0.085C25.543,11.434,25.539,11.448,25.535,11.463z M26.296,12.831
				c-0.061-0.05-0.121-0.098-0.179-0.144c-0.009-0.04-0.018-0.081-0.026-0.121c0.01-0.015,0.019-0.029,0.028-0.044
				c0.058,0.099,0.118,0.197,0.18,0.294L26.296,12.831z M33.894,13.106c-0.021,0.023-0.044,0.045-0.067,0.063
				c-0.016-0.091-0.032-0.182-0.048-0.272c-0.001-0.008-0.003-0.017-0.005-0.024c0.009-0.104,0.019-0.234,0.03-0.387
				c0.005,0.022,0.012,0.046,0.015,0.068c0.003,0.035,0.009,0.078,0.019,0.114l0.056,0.221c0.002,0.008,0.003,0.017,0.005,0.025
				c0,0.02,0.001,0.039,0.001,0.059C33.898,13.018,33.897,13.062,33.894,13.106z M33.867,11.787l0.002,0.004
				c-0.003,0.053-0.003,0.104-0.003,0.156c0,0.073,0.003,0.147,0.006,0.221c-0.003-0.012-0.006-0.024-0.009-0.036
				c-0.01-0.041-0.021-0.083-0.031-0.124c0.004-0.088,0.008-0.179,0.012-0.272C33.851,11.752,33.859,11.771,33.867,11.787z
				 M33.849,11.525c0.001-0.031,0.001-0.062,0.002-0.094c0.001,0.006,0.004,0.013,0.006,0.019c0.012,0.054,0.022,0.105,0.023,0.156
				C33.87,11.579,33.86,11.553,33.849,11.525z M33.878,12.336c0.002,0.042,0.004,0.084,0.006,0.126
				c0.003,0.074,0.007,0.149,0.01,0.224l-0.006-0.027c-0.007-0.038-0.011-0.069-0.013-0.11c-0.003-0.04-0.011-0.077-0.019-0.115
				c-0.012-0.053-0.025-0.104-0.039-0.157c0.003-0.041,0.005-0.083,0.007-0.126C33.842,12.211,33.86,12.273,33.878,12.336z
				 M33.958,13.026c0.001-0.018,0.002-0.034,0.003-0.051c0.005-0.114,0.006-0.228,0.006-0.341c0.002,0.006,0.004,0.011,0.005,0.017
				c0.001,0.02,0.001,0.039,0.002,0.059c0.007,0.081,0.017,0.162,0.029,0.242C33.989,12.979,33.974,13.003,33.958,13.026z
				 M33.967,12.55v-0.09c-0.001-0.14-0.002-0.279,0-0.418c0.003,0.011,0.006,0.021,0.01,0.031c0.003,0.042,0.008,0.083,0.01,0.125
				c0.004,0.085,0.01,0.17-0.006,0.249c-0.007,0.04-0.009,0.08-0.01,0.119C33.97,12.561,33.969,12.556,33.967,12.55z M34.033,12.897
				c-0.003-0.034-0.008-0.067-0.01-0.101c0.008,0.022,0.018,0.045,0.026,0.068C34.044,12.876,34.039,12.887,34.033,12.897z
				 M34.144,12.626c-0.027,0.082-0.057,0.157-0.087,0.224c-0.013-0.039-0.026-0.079-0.039-0.119c0-0.008-0.001-0.016-0.002-0.023
				c-0.002-0.084-0.001-0.169,0.017-0.249c0.011-0.048,0.015-0.097,0.017-0.145c0.03,0.101,0.063,0.199,0.101,0.296
				C34.148,12.614,34.145,12.621,34.144,12.626z M34.176,12.548c-0.037-0.118-0.071-0.236-0.098-0.355
				c-0.009-0.049-0.021-0.098-0.035-0.147c-0.006-0.121-0.014-0.243-0.023-0.363c-0.01-0.139-0.021-0.278-0.027-0.417
				c0.021,0.053,0.043,0.105,0.06,0.161c0.05,0.145,0.108,0.284,0.173,0.421c0.051,0.11,0.105,0.219,0.153,0.329
				C34.291,12.324,34.218,12.454,34.176,12.548z M32.713,5.947c-0.165-0.19-0.326-0.372-0.479-0.543
				c-0.038-0.046-0.074-0.095-0.11-0.141l-0.01,0.008c-0.619-0.68-1.082-1.138-1.082-1.138c1.086-0.104,2.026-0.188,3.217,0.041
				c1.191,0.23,2.674,0.691,3.092,0.921c-0.271,0.753-1.232,3.849-1.399,4.455c-0.167,0.606-0.334,0.795-0.606,1.172
				c-0.19,0.264-0.647,0.938-0.939,1.426c-0.042-0.107-0.087-0.212-0.131-0.318c-0.058-0.139-0.109-0.279-0.151-0.423
				c-0.03-0.119-0.075-0.237-0.127-0.35c0-0.046,0.001-0.092,0.007-0.135c0.013-0.097-0.007-0.191-0.03-0.276
				c-0.03-0.101-0.067-0.197-0.107-0.293c0-0.056-0.004-0.109-0.01-0.162C33.791,8.621,33.531,6.837,32.713,5.947z M33.751,13.198
				c-0.001-0.014-0.005-0.026-0.007-0.038l0.002-0.012c0,0,0.006-0.047,0.014-0.136c0.013,0.06,0.026,0.118,0.039,0.178
				c-0.015,0.011-0.031,0.019-0.047,0.027C33.752,13.211,33.752,13.205,33.751,13.198z"/>
		</g>
	</g>
</g>
<g id="Rectangle_4_1_" class="st0">
	<g id="Rectangle_4_3_">
		<g>
			<linearGradient id="SVGID_3_" gradientUnits="userSpaceOnUse" x1="131.062" y1="17.6338" x2="127.5996" y2="50.5764">
				<stop  offset="0" style="stop-color:#FFFFFF"/>
				<stop  offset="1" style="stop-color:#D2D2D2"/>
			</linearGradient>
			<path class="st5" d="M67.511,39.567c-0.24-0.221-0.36-0.58-0.36-1.08v-6.721h3.36v-4.26h-3.36v-4.08h-5.13v4.08h-2.04v4.26h2.04
				v6.66c0,2.061,0.52,3.545,1.56,4.455c1.04,0.91,2.49,1.365,4.35,1.365h2.61v-4.351h-1.83
				C68.151,39.896,67.751,39.787,67.511,39.567z M83.811,35.112c-0.781-0.311-1.791-0.625-3.031-0.945
				c-1.08-0.24-1.875-0.48-2.384-0.72c-0.51-0.24-0.765-0.601-0.765-1.08c0-0.4,0.16-0.715,0.48-0.945
				c0.32-0.229,0.78-0.345,1.38-0.345c0.7,0,1.264,0.17,1.696,0.51c0.43,0.341,0.684,0.8,0.764,1.38h4.74
				c-0.18-1.72-0.875-3.1-2.084-4.14c-1.211-1.04-2.865-1.561-4.965-1.561c-1.42,0-2.646,0.23-3.675,0.69
				c-1.03,0.46-1.81,1.085-2.34,1.875c-0.53,0.79-0.795,1.665-0.795,2.625c0,1.14,0.29,2.045,0.87,2.715s1.27,1.16,2.07,1.47
				c0.8,0.311,1.8,0.605,3,0.886c1.12,0.28,1.929,0.535,2.429,0.765c0.5,0.23,0.75,0.585,0.75,1.065
				c0,0.399-0.175,0.725-0.524,0.975c-0.351,0.25-0.845,0.375-1.485,0.375c-0.7,0-1.29-0.18-1.77-0.54s-0.75-0.83-0.81-1.41h-5.07
				c0.08,1.08,0.45,2.055,1.11,2.925s1.56,1.556,2.7,2.056c1.14,0.5,2.439,0.75,3.9,0.75c1.359,0,2.555-0.221,3.585-0.66
				s1.819-1.045,2.37-1.815c0.55-0.77,0.824-1.645,0.824-2.625c-0.02-1.159-0.324-2.085-0.914-2.774
				C85.276,35.922,84.59,35.422,83.811,35.112z M111.77,29.817c-0.52-0.78-1.234-1.4-2.145-1.86s-1.916-0.69-3.016-0.69
				c-1.379,0-2.631,0.351-3.75,1.051s-2.006,1.7-2.654,3c-0.65,1.3-0.975,2.81-0.975,4.529c0,1.721,0.324,3.235,0.975,4.545
				c0.648,1.311,1.535,2.32,2.654,3.03s2.371,1.065,3.75,1.065c1.18,0,2.215-0.24,3.105-0.721c0.889-0.479,1.574-1.119,2.055-1.92
				v2.4h5.131v-22.2h-5.131V29.817z M110.706,38.907c-0.711,0.74-1.576,1.109-2.596,1.109s-1.885-0.375-2.596-1.125
				c-0.709-0.75-1.064-1.765-1.064-3.045c0-1.279,0.355-2.284,1.064-3.015c0.711-0.729,1.576-1.095,2.596-1.095
				s1.885,0.37,2.596,1.109c0.709,0.74,1.064,1.751,1.064,3.03C111.77,37.157,111.415,38.167,110.706,38.907z M132.047,29.877
				c-0.48-0.78-1.166-1.41-2.055-1.89c-0.891-0.48-1.926-0.721-3.105-0.721c-1.381,0-2.631,0.351-3.75,1.051
				c-1.121,0.7-2.006,1.7-2.654,3c-0.65,1.3-0.977,2.81-0.977,4.529c0,1.721,0.326,3.235,0.977,4.545
				c0.648,1.311,1.533,2.32,2.654,3.03c1.119,0.71,2.359,1.065,3.721,1.065c1.18,0,2.215-0.24,3.104-0.721
				c0.891-0.479,1.586-1.109,2.086-1.89v2.37h5.129v-16.74h-5.129V29.877z M130.983,38.907c-0.711,0.74-1.576,1.109-2.596,1.109
				s-1.885-0.375-2.596-1.125c-0.709-0.75-1.064-1.765-1.064-3.045c0-1.279,0.355-2.284,1.064-3.015
				c0.711-0.729,1.576-1.095,2.596-1.095s1.885,0.37,2.596,1.109c0.709,0.74,1.064,1.751,1.064,3.03
				C132.047,37.157,131.692,38.167,130.983,38.907z M147.049,39.567c-0.238-0.221-0.359-0.58-0.359-1.08v-6.721h3.359v-4.26h-3.359
				v-4.08h-5.129v4.08h-2.041v4.26h2.041v6.66c0,2.061,0.52,3.545,1.559,4.455c1.041,0.91,2.49,1.365,4.35,1.365h2.611v-4.351h-1.83
				C147.69,39.896,147.29,39.787,147.049,39.567z M155.426,20.217c-0.9,0-1.635,0.266-2.205,0.795
				c-0.57,0.53-0.855,1.195-0.855,1.995c0,0.78,0.285,1.436,0.855,1.965c0.57,0.53,1.305,0.795,2.205,0.795
				c0.879,0,1.605-0.265,2.176-0.795c0.568-0.529,0.854-1.185,0.854-1.965c0-0.8-0.285-1.465-0.854-1.995
				C157.032,20.482,156.305,20.217,155.426,20.217z M152.846,44.247h5.131v-16.74h-5.131V44.247z M171.702,27.327
				c-1.102,0-2.09,0.215-2.971,0.645c-0.881,0.431-1.58,1.016-2.1,1.755v-2.22H161.5v16.74h5.131v-9.09
				c0-1.12,0.289-1.99,0.869-2.61c0.58-0.619,1.361-0.93,2.34-0.93c0.98,0,1.76,0.311,2.34,0.93c0.58,0.62,0.871,1.49,0.871,2.61
				v9.09h5.1v-9.78c0-2.22-0.584-3.965-1.754-5.234C175.227,27.962,173.661,27.327,171.702,27.327z M193.122,27.507v2.37
				c-0.48-0.78-1.166-1.41-2.055-1.89c-0.891-0.48-1.926-0.721-3.105-0.721c-1.381,0-2.631,0.351-3.75,1.051
				c-1.121,0.7-2.006,1.7-2.656,3c-0.648,1.3-0.975,2.81-0.975,4.529c0,1.721,0.326,3.235,0.975,4.545
				c0.65,1.311,1.535,2.32,2.656,3.03c1.119,0.71,2.369,1.065,3.75,1.065c1.18,0,2.209-0.245,3.09-0.735
				c0.879-0.49,1.57-1.125,2.07-1.905v2.37c0,1.34-0.316,2.314-0.945,2.925c-0.631,0.61-1.475,0.915-2.535,0.915
				c-0.881,0-1.619-0.185-2.221-0.555c-0.6-0.37-0.979-0.875-1.139-1.515h-5.07c0.219,1.999,1.1,3.585,2.641,4.755
				c1.539,1.17,3.549,1.755,6.029,1.755c1.859,0,3.414-0.37,4.664-1.11s2.18-1.735,2.791-2.984c0.609-1.251,0.914-2.646,0.914-4.186
				v-16.71H193.122z M192.055,38.907c-0.709,0.74-1.574,1.109-2.594,1.109s-1.885-0.375-2.596-1.125
				c-0.709-0.75-1.064-1.765-1.064-3.045c0-1.279,0.355-2.284,1.064-3.015c0.711-0.729,1.576-1.095,2.596-1.095
				s1.885,0.37,2.594,1.109c0.711,0.74,1.066,1.751,1.066,3.03C193.122,37.157,192.766,38.167,192.055,38.907z M89.004,36.999h7v-4
				h-7V36.999z"/>
		</g>
	</g>
</g>
<g id="Ellipse_2_1_" class="st0">
	<g id="Ellipse_2">
		<g>
			<circle class="st1" cx="155.504" cy="22.499" r="3.5"/>
		</g>
	</g>
</g>
<g id="TS-Dating.com_1_" class="st0">
	<g id="TS-Dating.com_3_">
		<g>
			<path class="st2" d="M62.702,48.829h1.674v5.418h1.026v-5.418h1.665v-0.837h-4.365V48.829z M74.905,50.998
				c-0.261-0.114-0.599-0.229-1.013-0.342c-0.312-0.084-0.558-0.162-0.738-0.234c-0.18-0.072-0.329-0.169-0.446-0.292
				c-0.117-0.123-0.175-0.281-0.175-0.473c0-0.282,0.093-0.498,0.279-0.648c0.186-0.149,0.426-0.225,0.72-0.225
				c0.324,0,0.585,0.081,0.783,0.243c0.198,0.161,0.306,0.356,0.324,0.585h1.134c-0.042-0.528-0.256-0.943-0.644-1.247
				c-0.387-0.303-0.883-0.454-1.489-0.454c-0.426,0-0.801,0.072-1.125,0.216c-0.324,0.144-0.576,0.351-0.756,0.621
				c-0.18,0.27-0.27,0.585-0.27,0.945c0,0.39,0.09,0.701,0.27,0.936c0.18,0.234,0.397,0.406,0.652,0.518
				c0.255,0.111,0.586,0.221,0.995,0.328c0.324,0.084,0.577,0.162,0.76,0.234s0.336,0.174,0.459,0.306
				c0.123,0.133,0.185,0.304,0.185,0.514c0,0.27-0.099,0.49-0.297,0.661c-0.198,0.171-0.474,0.257-0.828,0.257
				c-0.342,0-0.607-0.087-0.796-0.262c-0.189-0.174-0.296-0.396-0.32-0.666h-1.098c0,0.36,0.096,0.676,0.288,0.945
				c0.192,0.271,0.456,0.479,0.792,0.626c0.336,0.146,0.714,0.22,1.134,0.22c0.444,0,0.83-0.085,1.157-0.256
				c0.327-0.171,0.576-0.397,0.747-0.68c0.171-0.282,0.257-0.582,0.257-0.9c0-0.396-0.092-0.712-0.274-0.949
				C75.388,51.287,75.166,51.112,74.905,50.998z M80.605,51.421h3.699v-0.864h-3.699V51.421z M93.21,48.374
				c-0.501-0.255-1.085-0.382-1.751-0.382h-2.043v6.255h2.043c0.666,0,1.25-0.125,1.751-0.374c0.501-0.248,0.888-0.607,1.161-1.075
				s0.41-1.02,0.41-1.656c0-0.636-0.137-1.192-0.41-1.669C94.098,48.995,93.711,48.63,93.21,48.374z M93.143,52.816
				c-0.391,0.396-0.951,0.594-1.684,0.594h-1.017v-4.581h1.017c0.732,0,1.293,0.204,1.684,0.612c0.391,0.407,0.585,0.975,0.585,1.7
				C93.728,51.862,93.534,52.42,93.143,52.816z M101.059,47.983l-2.24,6.264h1.07l0.449-1.278h2.619l0.451,1.278h1.08l-2.242-6.264
				H101.059z M100.627,52.132l1.025-2.907l1.018,2.907H100.627z M108.061,48.829h1.674v5.418h1.025v-5.418h1.666v-0.837h-4.365
				V48.829z M116.995,54.247h1.027v-6.255h-1.027V54.247z M127.227,52.645l-3.088-4.661h-1.025v6.264h1.025v-4.671l3.088,4.671
				h1.025v-6.264h-1.025V52.645z M135.836,51.637h2.35c-0.078,0.534-0.293,0.957-0.641,1.27c-0.348,0.312-0.801,0.468-1.357,0.468
				c-0.414,0-0.783-0.093-1.107-0.279c-0.324-0.186-0.578-0.451-0.762-0.796c-0.182-0.346-0.273-0.743-0.273-1.192
				c0-0.45,0.092-0.847,0.273-1.188c0.184-0.342,0.438-0.606,0.762-0.792s0.693-0.279,1.107-0.279c0.377,0,0.711,0.08,0.998,0.239
				c0.287,0.158,0.514,0.395,0.676,0.706h1.232c-0.234-0.6-0.611-1.063-1.129-1.391c-0.52-0.327-1.111-0.49-1.777-0.49
				c-0.582,0-1.119,0.137-1.607,0.409c-0.488,0.273-0.877,0.652-1.16,1.139c-0.285,0.486-0.428,1.035-0.428,1.647
				c0,0.611,0.143,1.16,0.428,1.646c0.283,0.486,0.67,0.865,1.156,1.139s1.021,0.409,1.611,0.409c0.545,0,1.041-0.121,1.488-0.364
				s0.811-0.568,1.09-0.977s0.451-0.855,0.518-1.341v-0.801h-3.447V51.637z M144.204,52.996c-0.186,0-0.342,0.062-0.469,0.188
				c-0.125,0.126-0.188,0.282-0.188,0.469c0,0.186,0.062,0.342,0.188,0.468c0.127,0.126,0.283,0.188,0.469,0.188
				c0.18,0,0.332-0.062,0.459-0.188c0.125-0.126,0.189-0.282,0.189-0.468c0-0.187-0.064-0.343-0.189-0.469
				C144.536,53.059,144.383,52.996,144.204,52.996z M151.168,49.09c0.322-0.186,0.691-0.279,1.105-0.279
				c0.379,0,0.711,0.081,1,0.243c0.287,0.162,0.512,0.408,0.674,0.738h1.234c-0.234-0.6-0.611-1.063-1.131-1.391
				c-0.518-0.327-1.111-0.49-1.777-0.49c-0.582,0-1.117,0.137-1.605,0.409c-0.49,0.273-0.877,0.652-1.162,1.139
				s-0.426,1.035-0.426,1.647c0,0.611,0.141,1.16,0.426,1.646s0.672,0.865,1.158,1.139c0.484,0.273,1.021,0.409,1.609,0.409
				c0.666,0,1.26-0.162,1.777-0.485c0.52-0.324,0.896-0.786,1.131-1.387h-1.234c-0.162,0.33-0.387,0.576-0.674,0.738
				c-0.289,0.162-0.621,0.243-1,0.243c-0.414,0-0.783-0.095-1.105-0.284c-0.324-0.188-0.578-0.457-0.762-0.805
				c-0.184-0.349-0.273-0.753-0.273-1.215c0-0.463,0.09-0.867,0.273-1.216C150.59,49.543,150.844,49.276,151.168,49.09z
				 M164.377,48.32c-0.488-0.272-1.027-0.409-1.615-0.409c-0.582,0-1.117,0.137-1.605,0.409c-0.49,0.273-0.877,0.652-1.162,1.139
				s-0.428,1.035-0.428,1.647c0,0.611,0.143,1.162,0.428,1.651c0.285,0.488,0.672,0.87,1.162,1.143
				c0.488,0.273,1.023,0.409,1.605,0.409c0.588,0,1.127-0.136,1.615-0.409c0.49-0.272,0.875-0.654,1.156-1.143
				c0.283-0.489,0.424-1.04,0.424-1.651c0-0.612-0.141-1.161-0.424-1.647C165.252,48.973,164.868,48.594,164.377,48.32z
				 M164.629,52.325c-0.184,0.352-0.436,0.621-0.76,0.811c-0.324,0.188-0.693,0.283-1.107,0.283s-0.783-0.095-1.107-0.283
				c-0.324-0.189-0.576-0.459-0.76-0.811c-0.184-0.351-0.275-0.757-0.275-1.219c0-0.463,0.092-0.867,0.275-1.216
				c0.184-0.348,0.436-0.614,0.76-0.801c0.324-0.186,0.693-0.279,1.107-0.279s0.783,0.094,1.107,0.279
				c0.324,0.187,0.576,0.453,0.76,0.801c0.184,0.349,0.275,0.753,0.275,1.216C164.905,51.568,164.813,51.975,164.629,52.325z
				 M176.192,47.992l-2.188,4.904l-2.195-4.904h-1.107v6.255h1.025v-4.284l1.918,4.284h0.711l1.906-4.284v4.284h1.027v-6.255
				H176.192z"/>
		</g>
	</g>
</g>
</svg>
