<svg xmlns="http://www.w3.org/2000/svg" width="18" height="18" viewBox="0 0 18 18">
    <g>
        <g>
            <path fill="#000"
                  d="M13.555 9c0 .638-.517 1.156-1.156 1.156h-2.243v2.243a1.156 1.156 0 0 1-2.311 0v-2.243H5.6a1.156 1.156 0 1 1 0-2.312h2.244V5.601a1.155 1.155 0 1 1 2.31 0v2.243H12.4c.639 0 1.156.518 1.156 1.156zM18 9A9 9 0 1 1 0 9a9 9 0 0 1 18 0zM15.69 9A6.685 6.685 0 0 0 9 2.31 6.685 6.685 0 0 0 2.311 9a6.685 6.685 0 0 0 6.69 6.689A6.685 6.685 0 0 0 15.688 9z"/>
        </g>
    </g>
</svg>
