<svg xmlns="http://www.w3.org/2000/svg" width="20" height="20" viewBox="0 0 20 20">
    <g>
        <g>
            <path fill="#000"
                  d="M19.667 19.68c-.22.197-.491.32-.786.32a1.08 1.08 0 0 1-.787-.32L14.53 16.07a8.899 8.899 0 0 1-5.531 1.916 8.947 8.947 0 0 1-6.368-2.629A8.94 8.94 0 0 1 0 8.993c0-2.409.934-4.669 2.63-6.364A8.95 8.95 0 0 1 8.998 0c2.409 0 4.67.934 6.367 2.629 3.22 3.219 3.516 8.33.713 11.917l3.59 3.562c.442.442.442 1.155 0 1.573zM13.792 4.202a6.775 6.775 0 0 0-9.588 0 6.728 6.728 0 0 0-1.991 4.792c0 1.794.713 3.513 1.99 4.79a6.773 6.773 0 0 0 4.795 1.99 6.772 6.772 0 0 0 4.794-1.99 6.723 6.723 0 0 0 1.991-4.79A6.727 6.727 0 0 0 13.792 4.2z"/>
        </g>
    </g>
</svg>
