<svg xmlns="http://www.w3.org/2000/svg" width="12" height="12" viewBox="0 0 12 12">
    <g>
        <g>
            <path fill="#000"
                  d="M11.969 4.534a.643.643 0 0 0-.549-.457L7.956 3.75 6.587.404A.638.638 0 0 0 6 0a.637.637 0 0 0-.587.404L4.044 3.75.58 4.077a.645.645 0 0 0-.549.457.685.685 0 0 0 .186.707l2.619 2.397-.772 3.548a.68.68 0 0 0 .248.687.615.615 0 0 0 .701.032L6 10.042l2.987 1.863c.219.137.494.125.701-.032a.68.68 0 0 0 .248-.687l-.772-3.548 2.619-2.397a.685.685 0 0 0 .186-.707z"/>
        </g>
    </g>
</svg>
