<svg xmlns="http://www.w3.org/2000/svg" width="24" height="24" viewBox="0 0 24 24">
    <g>
        <g>
            <path fill="#000"
                  d="M20.307 20.634c-.007.007-.01.017-.017.023-.07.067-.145.124-.215.188-.193.178-.385.351-.588.514-.11.087-.222.164-.334.25-.192.143-.384.287-.584.418-.136.094-.277.172-.417.257-.185.112-.369.224-.56.326-.162.086-.327.16-.492.237-.18.085-.359.173-.541.249-.183.075-.382.142-.556.204-.175.061-.348.128-.527.183-.202.061-.41.108-.615.159-.172.038-.343.09-.515.124-.236.047-.476.077-.716.11-.148.02-.293.05-.443.064-.392.039-.788.06-1.187.06-.4 0-.795-.021-1.188-.06-.15-.015-.295-.044-.443-.064-.24-.033-.48-.063-.716-.11-.177-.034-.343-.082-.514-.124-.206-.05-.413-.098-.616-.159-.179-.055-.34-.116-.527-.183-.186-.067-.371-.127-.556-.204-.184-.077-.361-.163-.541-.249-.165-.078-.33-.151-.492-.237-.191-.102-.375-.214-.56-.326-.14-.085-.28-.17-.417-.257-.2-.131-.392-.275-.584-.418a8.762 8.762 0 0 1-.333-.25c-.203-.165-.396-.343-.589-.514-.07-.064-.146-.12-.215-.188-.007-.006-.01-.016-.016-.023A11.982 11.982 0 0 1 0 11.967C.008 5.35 5.38-.008 11.996 0a11.98 11.98 0 0 1 8.674 3.693c4.577 4.779 4.415 12.363-.363 16.941zm-1.456-.994a6.875 6.875 0 0 0-4.672-6.422 5.08 5.08 0 0 1-4.365 0 6.875 6.875 0 0 0-4.672 6.422c.036.033.07.069.108.097a10.448 10.448 0 0 0 1.6 1.147 7.694 7.694 0 0 0 .876.459c.147.068.293.134.447.195.154.06.313.117.471.172.145.05.29.1.436.144.174.051.35.094.528.136.139.033.276.07.417.098.203.039.41.066.618.095.119.015.236.036.355.048.33.032.662.051 1 .051.336 0 .67-.019.998-.05.12-.013.237-.034.355-.05.208-.028.415-.055.619-.094.14-.028.277-.065.416-.098.177-.042.356-.084.528-.136.146-.043.291-.095.436-.144.158-.054.32-.111.471-.172a11.536 11.536 0 0 0 .865-.397c.155-.085.308-.171.459-.257a10.304 10.304 0 0 0 1.599-1.147c.037-.032.07-.064.107-.097zm-8.535-8.102l.015.005c.228.127.468.229.717.304.047.013.087.03.133.04.087.023.178.039.263.054.167.029.335.046.503.05h.098c.169-.004.337-.021.503-.05.088-.015.178-.03.264-.053.047-.011.088-.028.133-.041.249-.075.489-.177.716-.304.005-.005.01-.005.015-.005a3.427 3.427 0 1 0-3.36 0zm11.962.459a10.277 10.277 0 0 0-1.897-5.955C17.096 1.413 10.681.325 6.052 3.61 1.424 6.897.336 13.312 3.622 17.94a8.611 8.611 0 0 1 4.587-5.906 5.142 5.142 0 1 1 7.574 0 8.61 8.61 0 0 1 4.588 5.906 10.216 10.216 0 0 0 1.907-5.944z"/>
        </g>
    </g>
</svg>
