<svg xmlns="http://www.w3.org/2000/svg" width="20" height="20" viewBox="0 0 20 20">
    <g>
        <g>
            <path fill="#000"
                  d="M20 9.58c0 2.56-.997 4.966-2.806 6.775a9.52 9.52 0 0 1-6.775 2.806 9.576 9.576 0 0 1-4.625-1.189L0 20l2.028-5.795a9.572 9.572 0 0 1-1.19-4.624c0-2.56.997-4.965 2.807-6.775A9.518 9.518 0 0 1 10.419 0c2.56 0 4.965.997 6.775 2.806A9.518 9.518 0 0 1 20 9.581zm-4.845 2.73l-1.382-1.382a.586.586 0 0 0-.83 0l-.829.829a8.139 8.139 0 0 1-3.871-3.871l.83-.83a.587.587 0 0 0 0-.829L7.69 4.844a.586.586 0 0 0-.83 0L5.754 5.951c-.916.916.198 3.515 2.489 5.806 2.29 2.29 4.89 3.405 5.807 2.489l1.106-1.106c.229-.23.229-.6 0-.83z"/>
        </g>
    </g>
</svg>
