<svg xmlns="http://www.w3.org/2000/svg" width="42.03" height="40" viewBox="0 0 42.03 40">
  <path fill="#000" d="M1688.15,524.651l-14.86-27.608a6.128,6.128,0,0,0-10.59,0c-0.01.015-.01,0.03-0.02,0.044l-14.81,27.521a6.207,6.207,0,0,0-.05,6.249,6.067,6.067,0,0,0,5.35,3.143h29.57A6.22,6.22,0,0,0,1688.15,524.651Zm-22.62-18.01a2.465,2.465,0,1,1,4.93,0v9.949a2.465,2.465,0,1,1-4.93,0v-9.949Zm2.47,22.385a3.731,3.731,0,1,1,3.69-3.731A3.72,3.72,0,0,1,1668,529.026Z" transform="translate(-1647 -494)"/>
</svg>
