<svg xmlns="http://www.w3.org/2000/svg" width="13" height="14" viewBox="0 0 13 14">
    <g>
        <g>
            <path fill="#000"
                  d="M13 12.688c0 2.253-2.91.906-6.5.906S0 14.941 0 12.688c0-1.028.61-1.965 1.61-2.683a6.475 6.475 0 0 0 9.78 0c1 .718 1.61 1.655 1.61 2.683zM.78 5.727A5.723 5.723 0 0 1 6.5 0a5.724 5.724 0 0 1 5.72 5.727 5.724 5.724 0 0 1-5.72 5.727A5.723 5.723 0 0 1 .78 5.727zm2.86 0c0 1.58 1.28 2.863 2.86 2.863a2.863 2.863 0 0 0 0-5.726 2.862 2.862 0 0 0-2.86 2.863zm.78 0c0-1.149.931-2.082 2.08-2.082a2.082 2.082 0 0 1 0 4.165 2.082 2.082 0 0 1-2.08-2.083zm2.076-.52a.524.524 0 1 0 1.048.001.524.524 0 0 0-1.048-.001z"/>
        </g>
    </g>
</svg>
