<svg xmlns="http://www.w3.org/2000/svg" width="100" height="100" viewBox="0 0 100 100"><g><g><path fill="#d3d2d7" d="M50 0c27.614 0 50 22.386 50 50s-22.386 50-50 50S0 77.614 0 50 22.386 0 50 0z"/></g><g><path fill="#f4f2f6" d="M39.732 37.227c0-6.752 1.51-12.227 10.267-12.227 8.759 0 10.269 5.475 10.269 12.227 0 6.754-4.598 12.228-10.269 12.228-5.67 0-10.267-5.474-10.267-12.227zm29.662 31.218l-.001.913S66.538 75.001 50 75.001c-16.538 0-19.392-5.643-19.392-5.643 0-.656-.003-1.033-.003-1.236.004.11.012.06.03-.876.219-11.453 1.88-14.756 13.742-16.855 0 0 1.688 2.109 5.621 2.109 3.935 0 5.623-2.109 5.623-2.109 11.992 2.123 13.56 5.475 13.75 17.238.012.752.018.882.022.816z"/></g></g></svg>