<svg xmlns="http://www.w3.org/2000/svg" width="197" height="70" viewBox="0 0 197 70">
    <defs>
        <linearGradient id="we84a" x1="56" x2="0" y1="22.99" y2="58.99" gradientUnits="userSpaceOnUse">
            <stop offset="0" stop-color="#ef019e"/>
            <stop offset="1" stop-color="#ad0082"/>
        </linearGradient>
        <linearGradient id="we84b" x1="52.99" x2="2.99" y1="16.99" y2="49" gradientUnits="userSpaceOnUse">
            <stop offset="0" stop-color="#7c01ef"/>
            <stop offset="1" stop-color="#64019c"/>
        </linearGradient>
        <linearGradient id="we84c" x1="93" x2="92" y1="33" y2="37" gradientUnits="userSpaceOnUse">
            <stop offset="0" stop-color="#fff"/>
            <stop offset="1" stop-color="#d2d2d2"/>
        </linearGradient>
    </defs>
    <g>
        <g>
            <g>
                <path fill="#ec0163"
                      d="M-.005 52.071v-31.49c0-4.745 3.84-8.589 8.582-8.589h38.837c4.742 0 8.582 3.844 8.582 8.588v31.491c0 4.74-3.84 8.585-8.582 8.585H24.442v9.334l-11.235-9.334h-4.63c-4.742 0-8.582-3.846-8.582-8.585z"/>
                <path fill="url(#we84a)"
                      d="M-.005 52.071v-31.49c0-4.745 3.84-8.589 8.582-8.589h38.837c4.742 0 8.582 3.844 8.582 8.588v31.491c0 4.74-3.84 8.585-8.582 8.585H24.442v9.334l-11.235-9.334h-4.63c-4.742 0-8.582-3.846-8.582-8.585z"/>
            </g>
            <g>
                <path fill="#700ec2"
                      d="M52.993 28.626c0 8.94-4.834 16.765-12.068 21.08L24.07 62v-9.048C12.126 51.098 2.99 40.914 2.99 28.626c0-13.606 11.195-24.634 25.002-24.634 13.808 0 25.001 11.028 25.001 24.634z"/>
                <path fill="url(#we84b)"
                      d="M52.993 28.626c0 8.94-4.834 16.765-12.068 21.08L24.07 62v-9.048C12.126 51.098 2.99 40.914 2.99 28.626c0-13.606 11.195-24.634 25.002-24.634 13.808 0 25.001 11.028 25.001 24.634z"/>
            </g>
            <g>
                <path fill="#3d0250"
                      d="M38.305 39.37c.203-.223.561-.467.756-.619.195-.15.346-.289.445-.546.099-.257.603-1.442.67-2.254.067-.813.403-2.176.45-2.498.026-.172.067-.446.093-.572.166-.523.387-.889.47-1.163.11-.357.273-2.552.218-3.292-.055-.74-.367-1.934.055-2.538.421-.603.694-.905 1.47-.836.113.01.204.017.276.02.05-.381.144-.774.263-1.152.106-.336.23-.664.369-.979l.008-.034c.03-.056.058-.11.092-.165.085-.439.163-.867.215-1.188.15-.919.449-2.098.884-2.647.436-.549 1.293-1.248 2.476-.713.858-.137 1.755.617 1.755 2.18 0 .816-.126 1.485-.289 2.057-.006.099-.01.196-.006.225a2.992 2.992 0 0 1-.012.559c-.01.14-.03.273-.062.398l-.04.229c-.007.055-.014.11-.018.167a.73.73 0 0 0 .009.17.728.728 0 0 1-.012-.17c.002-.059.007-.116.014-.172l.016-.11-.002.006c-.015.05-.032.098-.048.144a3.025 3.025 0 0 0-.047.146l-.015.056a6.343 6.343 0 0 1-.05.508c-.013.14-.024.28-.033.422-.007.11-.011.22-.01.331.001.078.005.156.016.232.155.064.317.174.345.399.04.329.272.576.462.699.19.124 1.36 1.152 1.32 2.016-.041.864-.435 1.042-.653 1.235.081.754.095 2.084-.204 2.894-.3.809-.395 2.085-.436 2.688 0 .018-.004.035-.005.054.178.647.448 1.287.517 1.468.099.258.25.396.445.547.195.151.553.396.757.62.203.222.42.348.238.57-.182.222-.21.418-.234.545-.023.128-.066.237-.26.411-.194.175-.483.169-.652.254-.17.086-.242-.036-.247-.133-.128-.043-.18-.127-.152-.158-.024-.096-.135-.197-.003-.262.132-.064.268-.236.268-.236s-.339-.236-.476-.492c-.137-.255-.254-.696-.38-.923-.064-.113-.147-.3-.263-.542a.032.032 0 0 0-.001.005c-.218.617-.123.933.176 1.564.646 1.361 1.524 4.032 1.66 4.663.136.63.38 2.277.49 2.579.109.301.326 1.261.435 1.508.109.247.245.713.327 1.125.081.411.788 2.222 1.006 3.072.218.85 1.116 4.142 1.388 4.636.272.494.789 1.865.898 2.468.109.604.38.934.571 1.043.19.11.636.325.636.398.235.124.36.288.347.494-.01.156-.046.247-.087.278.02.082-.005.133-.056.133-.05 0-.367.134-1.296-.04-.928-.176-1.316-1.081-1.53-1.544-.214-.463-.49-.844-1.061-1.039 0 0-.347.823-.429 1.838H52.4s.051-1.632-.214-2.157c-.265-.525-.184-.761.143-1.224.327-.463.306-.802-.163-1.533-.47-.73-2.092-3.477-2.194-4.588-.102-1.11 0-1.522-.245-1.79-.244-.267-.898-1.563-1.265-2.324-.367-.761-1.245-2.14-1.612-2.695-.367-.556-1.497-3.01-1.837-3.786-.265 1.337-.428 2.716-.571 3.497-.143.782-.347 1.132-.367 1.77-.02.638-.245 1.316-.531 2.119-.286.802-.694 1.173-.816 2.51-.123 1.337-.347 1.913-.429 3.127-.081 1.214-.02 2.819.082 3.992.102 1.172.367 2.653.694 3.044.326.391.591.548.768.604.177.055.177.357.123.535.04.123.095.315-.205.398-.299.082-1.156.15-1.673.027-.517-.123-1.387-.426-1.591-1.852-.205-.768-.49-1.11-.558-1.18-.109.384-.164 1.263-.136 1.921l-.164-.041s-.013-1.852-.19-2.36c-.177-.507.286-1.096.476-1.33.19-.233.599-.603.599-1.042 0-.44-.64-2.14-.667-3.539-.027-1.399-.122-2.55.83-4.76.245-.534.462-1.659.435-2.44-.027-.782-.476-3.923-.517-4.828-.04-.905-.054-1.632-.04-2.153a1.808 1.808 0 0 0-.171.311c-.001-.023-.004-.046-.007-.07-.076.163-.135.292-.183.377-.126.227-.244.668-.381.924-.137.255-.476.492-.476.492s.136.17.268.236c.132.064.021.166-.002.262.027.03-.025.115-.152.157-.005.097-.078.22-.248.134-.169-.086-.458-.08-.652-.254-.194-.175-.237-.284-.26-.411-.023-.127-.052-.323-.235-.545-.181-.223.037-.348.24-.571zM48.54 25.406c.014-.11.03-.218.048-.326l.003-.021a1.716 1.716 0 0 1-.043-.282 5.07 5.07 0 0 1-.013-.336v-.06l-.027.164-.03.193v.044l.017.052a.9.9 0 0 1 .04.32l-.014.16a2.817 2.817 0 0 0-.01.16c0-.06.003-.118.006-.177a1.566 1.566 0 0 1-.05-.309c-.004-.038-.006-.077-.008-.116a4.466 4.466 0 0 0-.032.324l-.003.12a.95.95 0 0 0 .019.088.718.718 0 0 1-.018-.066v.026c.003.039.008.079.018.114a.09.09 0 0 0 .038.027l.045.014.014-.113zm.08-1.906a5.87 5.87 0 0 1-.006.162.77.77 0 0 1 .017.048.969.969 0 0 1 .038-.243l-.003-.03-.003-.06-.038.1-.004.023zm-.001.676l-.005-.007.007.021.001-.007-.002-.003.001-.002.002.002c.008-.047.019-.092.03-.137a3.25 3.25 0 0 1 .044-.15c0-.002 0-.004.002-.006-.001-.073-.002-.147-.006-.22a1.52 1.52 0 0 1-.03.112l-.008.026a.387.387 0 0 1 .001.108l-.004.02.006.032-.006-.03c-.008.045-.018.088-.022.135.004-.05.014-.097.02-.144a1.121 1.121 0 0 1-.011-.073l-.025.075a.477.477 0 0 0-.02.078.315.315 0 0 0 .017.155l.008.013v.002zm.186-1.19a2.022 2.022 0 0 1-.009.114l.007-.02.017-.067-.005-.056-.01.03zm.017.119c-.013.04-.027.076-.04.113l-.012.065-.001.008c.002.119 0 .237-.002.355a2.232 2.232 0 0 0 .057-.548l-.002.007zm-.052-.02l-.007.02.002.04.005-.06zm-.127.662l.007.031.003-.011c.015-.052.028-.105.038-.16l-.003-.034a.439.439 0 0 1-.015-.073.886.886 0 0 0-.036.228l.006.02zm-.204 1.727a.575.575 0 0 1-.02-.109 2.14 2.14 0 0 1-.005-.076 1.959 1.959 0 0 1-.03-.261l-.006.05a5.616 5.616 0 0 0-.022.198.47.47 0 0 0 .083.198zm-.088-.4l-.017.087.007.04.01-.128zm-.033-.315a1.28 1.28 0 0 0 .005-.04l-.002-.015-.003.055zm.01-.14c0 .009.003.018.005.026l.012-.11-.004-.014-.007.024-.007.074zm.125.032v-.059l-.015.09.008.017a.09.09 0 0 1 .002.006l.005-.047v-.007zm-.024.086l-.003.02-.014.088a1.82 1.82 0 0 0-.002.083l-.001-.061-.01.058c0 .053.001.105.003.157.002.053.006.106.012.158v-.046c.002-.115.01-.228.02-.34.002-.03.005-.058.009-.088l-.014-.029zm.048.116c0 .044 0 .089.002.133.005.105.015.212.038.309.003-.048.006-.095.007-.143a.817.817 0 0 0-.046-.296l-.001-.003zm-5.009.19l.03-.124c.001-.061.001-.144.031-.25.033-.116.09-.364.157-.677a6.4 6.4 0 0 0-.254 1.07.109.109 0 0 0 .036-.018zm.063-1.097a6.49 6.49 0 0 0-.276 1.13c.054 0 .096 0 .13-.004.047-.39.143-.79.265-1.177.045-.142.093-.282.144-.421l.083-.412c-.128.284-.245.58-.346.884zm5.422-1.114a2.513 2.513 0 0 0-.012-.163l-.008-.072a1.482 1.482 0 0 1-.012.036l.012.074.014.084.006.041zm-.187 1.184l.044-.15c.016-.05.032-.097.045-.148.026-.093.047-.192.061-.294l.006-.045a2.131 2.131 0 0 0 .003-.485 1.796 1.796 0 0 0-.012-.081l-.015-.082c-.002-.004-.002-.01-.003-.013l-.018.056v.01c0 .034-.003.067-.007.1.001.122-.007.242-.02.359-.01.14-.031.273-.062.398l-.02.115v.017c0 .01.002.019.003.028a.374.374 0 0 1-.006.11 6.27 6.27 0 0 1-.005.131.318.318 0 0 1 .006-.026zm-.067-.087a2.88 2.88 0 0 0-.073.257l.027.044.01.021-.037-.062-.002.009a.679.679 0 0 0 0 .003l-.002.005a.584.584 0 0 0-.01.085.208.208 0 0 0 .012.082.21.21 0 0 1-.013-.083.576.576 0 0 1 .01-.097.539.539 0 0 1-.014-.035l-.01-.02.007.01a.33.33 0 0 1-.015-.146.577.577 0 0 1 .018-.082l.029-.094a1.121 1.121 0 0 1-.005-.086.941.941 0 0 0-.018-.05c-.008.125-.019.249-.033.37-.007.128-.014.256-.018.383-.004.11-.005.221 0 .332.003.094.011.19.03.279.016-.099.033-.195.046-.294.037-.27.06-.551.06-.83zm-.095.22zm.05 1.193a4.79 4.79 0 0 1 .006-.461l-.044.221c-.02.105-.04.21-.057.316l-.016.107c.042.012.088.027.134.046a1.924 1.924 0 0 1-.022-.229zM42.7 33.158c.57-.563 1.06-1.098 1.32-1.358.257-.26.448-.7.19-1.29-.259-.59-.4-1.189-.708-1.92a1.826 1.826 0 0 0-.49-.686 8.506 8.506 0 0 1-.122 2.757c-.19.85-.231 1.303-.19 2.497z"/>
            </g>
            <g>
                <path fill="#3d0250"
                      d="M18.934 40.942c-.182.222-.211.418-.234.545-.023.128-.066.236-.26.41-.194.175-.483.17-.652.256-.17.085-.243-.037-.248-.134-.127-.043-.179-.128-.151-.158-.024-.096-.135-.198-.003-.262.131-.065.268-.237.268-.237s-.339-.236-.476-.49c-.137-.257-.255-.697-.38-.925-.049-.085-.108-.214-.184-.377-.003.024-.006.047-.007.07a1.818 1.818 0 0 0-.17-.312c.013.522 0 1.249-.042 2.154-.04.905-.49 4.046-.517 4.827-.026.782.191 1.907.436 2.442.952 2.208.857 3.36.83 4.76-.028 1.398-.667 3.099-.667 3.538 0 .439.408.81.599 1.042.19.233.653.823.476 1.33-.177.508-.19 2.36-.19 2.36l-.164.041c.027-.658-.027-1.536-.136-1.92-.068.068-.354.411-.557 1.18-.205 1.425-1.075 1.728-1.592 1.85-.517.124-1.374.056-1.674-.027-.299-.082-.244-.274-.204-.398-.054-.178-.054-.48.123-.534.176-.055.442-.213.768-.604.327-.39.592-1.872.694-3.045.102-1.172.163-2.777.082-3.991-.082-1.214-.306-1.79-.429-3.127-.122-1.337-.53-1.707-.816-2.51-.286-.803-.51-1.481-.53-2.12-.021-.637-.225-.987-.368-1.769-.143-.781-.306-2.16-.571-3.497-.34.776-1.47 3.23-1.837 3.786-.367.555-1.245 1.934-1.612 2.695-.367.76-1.02 2.057-1.265 2.324-.245.268-.143.68-.245 1.79-.102 1.111-1.724 3.858-2.194 4.588-.469.731-.49 1.07-.163 1.533.327.463.408.7.143 1.224-.265.525-.214 2.157-.214 2.157h-.143c-.082-1.015-.429-1.838-.429-1.838-.571.195-.847.576-1.061 1.04-.214.462-.602 1.367-1.53 1.542-.929.175-1.245.041-1.296.041-.051 0-.077-.051-.057-.134-.04-.03-.076-.12-.086-.278-.013-.205.112-.37.347-.493 0-.072.445-.288.636-.398.19-.11.462-.439.571-1.042.11-.603.626-1.975.898-2.469.272-.494 1.17-3.786 1.388-4.636.217-.85.925-2.66 1.006-3.072.082-.412.218-.878.327-1.125.109-.246.326-1.207.435-1.509.11-.301.354-1.947.49-2.578.136-.631 1.014-3.302 1.66-4.663.3-.631.394-.947.177-1.564l-.003-.006c-.115.242-.198.43-.261.543-.127.227-.244.668-.381.923-.137.256-.476.492-.476.492s.136.171.268.236c.132.065.021.167-.003.262.028.03-.025.115-.152.158-.004.097-.077.22-.247.134-.17-.086-.458-.08-.652-.255-.194-.174-.237-.283-.26-.41-.023-.128-.052-.323-.234-.546-.183-.222.035-.348.238-.57.204-.224.562-.47.757-.62.195-.151.346-.29.445-.546.07-.182.34-.823.517-1.469l-.005-.054c-.041-.604-.137-1.88-.436-2.689-.3-.809-.285-2.139-.204-2.893-.218-.192-.612-.37-.653-1.235-.04-.863 1.13-1.892 1.32-2.016.19-.123.422-.37.463-.7.027-.224.189-.334.344-.399a1.88 1.88 0 0 0 .016-.23 4.312 4.312 0 0 0-.01-.332c-.009-.14-.02-.282-.032-.422a6.38 6.38 0 0 1-.03-.244v0a6.193 6.193 0 0 1-.02-.264l-.016-.056a3.302 3.302 0 0 0-.047-.146l-.049-.144v-.006c.004.037.01.074.015.11.006.056.012.113.014.171a.726.726 0 0 1-.012.172.725.725 0 0 0 .009-.17 1.752 1.752 0 0 0-.019-.168c-.012-.077-.026-.153-.04-.23a2.263 2.263 0 0 1-.06-.398 2.857 2.857 0 0 1-.013-.558c.003-.029 0-.127-.006-.225a7.34 7.34 0 0 1-.29-2.056c0-1.564.898-2.318 1.756-2.181 1.183-.535 2.04.165 2.476.713.435.549.734 1.728.884 2.647.052.32.13.75.215 1.188.034.056.062.108.092.166l.008.034c.138.314.263.642.369.978.119.378.214.77.263 1.153.072-.004.163-.011.277-.022.775-.068 1.048.234 1.47.837.421.604.108 1.797.054 2.538-.055.74.108 2.935.218 3.292.084.274.304.64.47 1.163.026.126.067.4.092.572.048.322.384 1.685.45 2.498.068.812.572 1.997.671 2.254.099.258.25.396.445.547.195.15.553.395.756.619.203.223.421.348.24.57zM8.474 26.518l.045-.014a.089.089 0 0 0 .038-.028.582.582 0 0 0 .017-.113v-.026a.802.802 0 0 1-.017.066.902.902 0 0 0 .018-.087c0-.04 0-.08-.002-.12a4.523 4.523 0 0 0-.032-.325 3.46 3.46 0 0 1-.007.116c-.01.107-.023.215-.05.309.003.059.006.118.006.177a2.83 2.83 0 0 0-.01-.16c-.005-.053-.011-.106-.014-.16a.919.919 0 0 1 .039-.32l.018-.052-.001-.044a9.367 9.367 0 0 0-.03-.193l-.027-.164v.06a5.008 5.008 0 0 1-.013.337c-.008.097-.02.194-.043.28l.003.023c.018.107.034.215.048.325l.014.113zm-.1-2.042l-.037-.1c-.001.02-.001.04-.003.059l-.003.031a.986.986 0 0 1 .038.243l.017-.048a9.333 9.333 0 0 1-.007-.162l-.004-.023zm.007.697l.008-.013a.423.423 0 0 0 .016-.068.298.298 0 0 0 0-.087.489.489 0 0 0-.019-.078l-.025-.075a1.083 1.083 0 0 1-.01.073c.005.047.016.094.02.144-.005-.047-.015-.09-.023-.135l-.006.03.006-.032a.374.374 0 0 1-.002-.129l-.01-.025a2.035 2.035 0 0 1-.03-.112 5.428 5.428 0 0 0-.004.22l.001.006.044.15a1.827 1.827 0 0 1 .032.134v.003l-.001.003.001.007.007-.022-.004.009-.001-.003zm-.196-1.217l-.005.056c.005.022.01.045.017.067l.007.02a2.122 2.122 0 0 1-.009-.113l-.01-.03zm-.01.141c-.002.104.004.207.016.308l.006.045c.01.066.022.132.036.195a8.55 8.55 0 0 1-.003-.363l-.01-.065a1.66 1.66 0 0 1-.044-.12zm.06.047l.002-.04-.007-.02.005.06zm.128.583a.91.91 0 0 0-.036-.227.445.445 0 0 1-.015.072l-.003.034c.01.055.023.109.037.16l.004.011.007-.03.006-.02zm.281 1.548a6.552 6.552 0 0 0-.022-.198l-.007-.05c0 .019-.002.038-.004.057-.005.07-.013.138-.026.204 0 .025-.002.05-.004.076a.56.56 0 0 1-.02.109.466.466 0 0 0 .083-.198zm.015-.075l.007-.04-.017-.088.01.128zm.02-.497l-.002.016.005.04-.003-.056zm-.013-.16l-.007-.023-.004.014.012.11.006-.026-.007-.074zm-.12.114l.006.048.002-.007.008-.017-.015-.09v.066zm.011.109l.01.087c.01.112.018.225.02.34v.046a4.232 4.232 0 0 0 .014-.315l-.01-.059-.001.062c0-.027 0-.055-.002-.083l-.014-.089-.003-.02-.014.03zm-.035.089a.837.837 0 0 0-.037.14.89.89 0 0 0-.01.156l.008.143c.023-.097.033-.204.038-.31l.002-.132-.001.003zm5.046.207a6.427 6.427 0 0 0-.254-1.07c.067.312.124.56.156.676.03.107.03.189.031.25l.031.125c.01.008.021.014.036.019zm-.445-2c.028.139.055.277.083.41.05.14.1.28.144.422.122.386.218.788.266 1.177a.912.912 0 0 0 .13.003 6.483 6.483 0 0 0-.277-1.13 9.195 9.195 0 0 0-.346-.883zm-5.07-.272l.014-.085.012-.073-.012-.036-.008.071c-.005.054-.01.11-.012.164l.006-.04zm.187 1.251a5.008 5.008 0 0 1-.005-.132.375.375 0 0 1-.006-.11l.003-.027v-.017a8.16 8.16 0 0 0-.02-.115 2.263 2.263 0 0 1-.062-.399 2.98 2.98 0 0 1-.02-.359 1.116 1.116 0 0 1-.007-.1v-.01l-.018-.056-.002.014-.016.082a1.976 1.976 0 0 0-.024.25 2.11 2.11 0 0 0 .015.316l.006.045c.014.102.035.201.06.294l.046.147.044.151.006.026zm.122.718c.013.1.03.195.046.294.019-.09.027-.185.03-.28.005-.11.003-.22 0-.33-.004-.129-.011-.256-.018-.384a6.814 6.814 0 0 1-.033-.371.666.666 0 0 0-.018.052.953.953 0 0 1-.005.084l.029.094a.602.602 0 0 1 .018.084.327.327 0 0 1-.014.145l.006-.01-.01.02-.013.035.002.01a.673.673 0 0 1 .007.087.22.22 0 0 1-.013.083.213.213 0 0 0 .011-.083.581.581 0 0 0-.009-.084l-.001-.006-.02.044.02-.046-.003-.01-.037.063.01-.021.027-.044a1.579 1.579 0 0 0-.072-.257c0 .28.023.56.06.831zm-.04.811c.047-.019.093-.034.135-.047l-.016-.106a9.305 9.305 0 0 0-.057-.316l-.044-.221.005.125c.003.111.005.224 0 .336a2.07 2.07 0 0 1-.022.23zm5.788 5.09a8.507 8.507 0 0 1-.123-2.756s-.299.234-.49.686c-.307.73-.448 1.33-.707 1.92-.258.59-.067 1.029.19 1.29.259.26.75.795 1.32 1.357.041-1.193 0-1.645-.19-2.496z"/>
            </g>
            <g>
                <path fill="#3d0250"
                      d="M46.902 68.668c-.266.251-.47.361-1.833.33-.905-.021-1.426-.68-1.572-.816-.22-.205-.282-.293-.277-1.051.008-1.036-.188-1.695-.188-1.695l-.156 1.883s-.047-.016-.204.016c-.063-1.788-.104-2.735-.199-2.94-.093-.203-.047-.794 0-1.045.193-1.025.042-1.59-.417-2.468-.46-.879-1.504-2.615-2.36-3.786-.857-1.171-2.57-4.058-2.967-5.25-.396-1.192-.814-1.946-1.316-2.594-.501-.648-.856-1.61-1.232-2.426-.376-.816-.94-1.82-1.254-2.678-.313-.857-.898-1.736-1.754-3.095-.857-1.36-2.131-2.761-2.946-4.35-.814-1.59-.552-1.362-.856-1.904-.335-.597-.585-1.224-.585-1.224s-.25.345-.44 1.004c-.12.423-1.205 2.463-2.035 4.377-.83 1.914-1.144 3.216-1.316 3.89-.173.675-.533 2.59-.847 3.294-.313.707-.752 1.413-.861 1.946-.11.533-.032 2.855-.83 4.738-.8 1.882-1.943 5.647-2.116 6.667-.172 1.02-.156 1.663 0 1.835.157.173.58 1.286.408 1.648-.44.956-.455 3.843-.455 3.843l-.172-.032c0-.784-.11-2.305-.14-2.996-.236.22-.455 1.883-.487 2.558-.031.674-.564 1.129-1.488 1.333-.924.204-1.645-.079-1.817-.141-.173-.063-.11-.345-.126-.502-.062-.047-.125-.392-.015-.533.109-.142.934-1.146.976-1.795.042-.648.794-2.154.836-2.51.042-.355.563-2.907.584-3.89.021-.983.042-2.51.293-5.773.25-3.263 1.316-6.108 1.4-6.568.083-.46.438-2.05.585-2.594.146-.543.313-1.652.334-2.091.02-.44.146-2.197.271-3.284.126-1.088.272-4.225 1.274-7.718 1.003-3.494 3.96-6.175 4.722-6.84.934-.816.882-1.554.678-2.573a12.44 12.44 0 0 0-.387-1.392c0 .021-.002.042-.001.063.005.04.007.09.005.134l-.014.262c-.018.345.04.697.195 1.011a2.07 2.07 0 0 1-.242-1.012l.001-.262a.77.77 0 0 0-.01-.127 1.253 1.253 0 0 1-.004-.136l.006-.132-.04-.122c-.014.175-.028.351-.048.526.004.024.008.048.01.072.044.396.027.791.012 1.186 0-.358-.002-.718-.046-1.071-.02.133-.045.264-.08.394.036-.154.057-.31.071-.467l-.004-.035a1.199 1.199 0 0 0-.073-.28c-.043-.095-.06-.195-.078-.292l-.019-.126c.001.035.002.07.001.105a.977.977 0 0 1-.046.32.952.952 0 0 0 .022-.32 4.64 4.64 0 0 0-.032-.32c-.026-.213-.06-.427-.067-.647v-.064a.525.525 0 0 0-.001-.018 2.024 2.024 0 0 0-.032.2 4.736 4.736 0 0 1-.1.516c-.041.17-.089.337-.12.508-.027.148-.038.3-.036.451.03.109.07.215.12.317a1.819 1.819 0 0 1-.12-.267v-.002a2.182 2.182 0 0 1-.123-.744l.001-.262a.795.795 0 0 0-.01-.127c-.005-.047-.004-.09-.003-.135.004-.177.018-.35.028-.525.007-.151.013-.3.014-.45l-.006.049c-.03.195-.046.394-.063.593-.019.2-.033.403-.055.604l.01.072c.043.396.027.792.011 1.186a8.76 8.76 0 0 0-.046-1.07 3.24 3.24 0 0 1-.08.394c.036-.154.057-.311.072-.469-.002-.01-.002-.023-.005-.034a1.202 1.202 0 0 0-.073-.28c-.042-.095-.059-.195-.077-.292-.035-.196-.057-.393-.081-.589-.02-.16-.04-.322-.062-.48a1.952 1.952 0 0 0-.03.2 4.8 4.8 0 0 1-.101.516c-.041.17-.09.337-.12.507-.032.17-.043.345-.036.52a2.395 2.395 0 0 1 .012-.523c.023-.174.064-.344.097-.515.034-.17.06-.341.076-.513.007-.142.032-.285.064-.425a1.459 1.459 0 0 0-.036-.152.813.813 0 0 1-.028-.319c.011-.121.032-.24.054-.357a1.357 1.357 0 0 1-.016-.11c-.483-.584-1.093-1.131-1.646-1.66-1.002-.956-3.196-3.764-3.838-4.768-.643-1.004-1.379-2.589-1.567-3.185-.188-.596.204-.831.47-.957.267-.125.924-.36 1.206-.502.282-.141 1.176-.423 2.335-.847 1.16-.424 3.775-1.286 4.136-1.35.36-.062.564-.172.658-.344-.078-.157.015-.298.204-.393-.094-.25.156-.392.36-.376-.078-.266.094-.424.313-.36.11-.11.611-.707.83-.895.22-.188.392-.25.565-.392.172-.141.36-.079.626.047.157-.141.33-.047.564.141.204-.11.376-.078.486.126.313-.048.486.235.423.423-.063.189-.642.863-.893 1.35.094 0 .376 0 .69.125.313.125.752.11 2.38-.063 1.63-.172 3.212-.172 4.23-.172 1.02 0 1.88.094 2.445.03.564-.062.58.299.814.958.235.659-.14 3.279-.391 4.596-.25 1.318-1.692 5.601-2.256 6.73-.564 1.13-.627 2.008-.69 2.714-.062.706-.548 1.679-.548 1.93 0 .25-.203 1.396-.814 3.294-.611 1.898-1.332 3.043-1.348 4.126-.015 1.083.063 2.15-.11 3.153-.172 1.005-.172 2.495.235 3.326.408.831.674 1.648 1.395 3.97.72 2.32 1.802 6.321 1.958 7.153.157.83.767 1.882.987 2.353.22.47.501 1.537 1.175 2.635.674 1.098 2.319 4.942 2.93 6.605.611 1.663 1.676 5.004 2.005 5.632.329.628.58.972.611 1.757.031.784.485 1.15.485 2.024 0 .961 0 2.023.847 2.337.446.165.606.71.475.936.078.005-.001.287-.068.35zM24.846 19.861zm-.47-13.42a2.27 2.27 0 0 0-.05.303c.026-.109.054-.216.086-.321l.039-.12-.002-.13c-.027.089-.052.178-.073.268zm.455 3.738l.01-.064c0-.052.001-.104-.002-.155-.001-.031-.005-.062-.008-.092l-.018.121c.005.064.011.127.018.19zm.048 1.257l.013-.029-.003-.006-.009-.017a.408.408 0 0 1-.004.015l-.004.014.007.023zm.081-.202l.004.014.025-.055.003-.028-.03-.053a1.064 1.064 0 0 1-.011.04.821.821 0 0 0 .01.082zm.248.792l.002.002c.001-.022.001-.045.003-.067a.98.98 0 0 0-.005-.168l-.044.063.044.17zm-.023-1.178v-.031l-.03-.134-.005.09.035.075zm.107 1.237a3.86 3.86 0 0 0-.008-.206c0 .03 0 .06-.005.089-.004.033-.005.068-.008.101l.02.016zm.82.604c.059.046.119.093.18.143l.003-.015a9.774 9.774 0 0 1-.18-.293c-.01.014-.018.03-.028.043l.026.122zm-.608-1.354c.005.027.008.054.014.08l.012.049.012-.044-.038-.085zm-.75.173a7.192 7.192 0 0 0-.067.161l.046.032c.005-.054.012-.108.022-.161l-.001-.032zm-.945-.476c.215.167.415.313.608.45a7.151 7.151 0 0 1 .275-.665.664.664 0 0 1-.064-.255 2.794 2.794 0 0 1 .003-.31 1.538 1.538 0 0 1-.068-.23 8.238 8.238 0 0 1-.142-1.049c-.006-.06-.008-.12-.011-.18l-.023-.051c-.009-.026-.02-.05-.026-.075a.987.987 0 0 1-.035-.221l-.044-.09-.056-.12-.027-.059c-.01-.025-.02-.05-.026-.075a1.34 1.34 0 0 1-.016-.57c.012-.079.028-.156.046-.232-.008-.013-.023-.031-.035-.048a.628.628 0 0 1-.11-.308c-.022-.2.004-.383.036-.562.033-.18.079-.353.13-.524.074-.246.16-.486.252-.722l.007-.113c-.267.126-.72.267-1.27.644-.548.376-2.083 1.411-2.537 1.616-.455.203-.204.36-.173.423.032.063.439.44 1.191 1.192.752.753 1.206 1.428 2.115 2.134zm.594 5.464a.948.948 0 0 0-.04-.061c-.01.052-.018.104-.025.156a.937.937 0 0 0-.005.18 9.02 9.02 0 0 0 .07-.275zm.224.563a2.36 2.36 0 0 0-.147-.415 22.85 22.85 0 0 1-.106.338c.01.06.02.119.027.179.023.198.037.395.053.592.016.196.03.393.057.587.013.096.027.194.061.281a.888.888 0 0 1 .038.13c.01-.17.016-.343.026-.515.01-.199.017-.399.04-.599a1.568 1.568 0 0 0-.05-.578zm.081-.07a3.315 3.315 0 0 1-.01-.23 4.339 4.339 0 0 0-.144-.224c.067.147.118.298.154.454zm.387.897a1.435 1.435 0 0 0-.037-.152.675.675 0 0 1-.03-.237 2.896 2.896 0 0 0-.172-.443c.035.332.01.674-.023 1.002-.017.174-.04.348-.052.52-.003.042-.004.085-.003.126.005.04.007.091.005.134l-.013.261c-.013.23.01.461.07.683a2.338 2.338 0 0 1 .018-.441c.022-.174.064-.344.097-.515.034-.17.06-.342.075-.513.008-.142.032-.286.065-.425zm.378 1.15c-.068-.209-.134-.42-.2-.637l.016.19c.016.197.031.393.057.588.014.096.027.193.062.28a.874.874 0 0 1 .038.131c.01-.17.016-.344.025-.515l.002-.037zm8.373-7.604l-.002.095.032.08a.805.805 0 0 0-.023-.155l-.007-.02zm.11 1.544l-.003.051a.996.996 0 0 0 .046-.073 3.795 3.795 0 0 1-.029-.243l-.002-.059a.146.146 0 0 0-.006-.016c0 .113 0 .226-.006.34zm.006-.425l.005.017c0-.04.003-.08.01-.12.016-.08.01-.164.006-.249-.002-.042-.007-.083-.01-.124l-.01-.032c-.002.139-.001.278 0 .418v.09zm.183.06a4.216 4.216 0 0 1-.1-.296.738.738 0 0 1-.017.144c-.018.08-.019.165-.017.25l.002.022.039.12c.03-.067.06-.142.087-.224l.006-.016zm-.116.287l.016-.032-.027-.069.01.101zm.345-.721c-.047-.11-.1-.219-.153-.33a4.08 4.08 0 0 1-.172-.42 1.87 1.87 0 0 0-.06-.161c.006.138.017.278.027.416.009.121.017.243.023.364.013.05.025.098.034.147.026.12.06.238.098.355a4.3 4.3 0 0 1 .203-.371zm-.48.797v-.058l-.006-.026-.056-.22a.754.754 0 0 1-.019-.115c-.003-.021-.01-.045-.015-.068a23.6 23.6 0 0 1-.03.387l.005.025.049.272a.581.581 0 0 0 .067-.063 2.83 2.83 0 0 0 .005-.134zm-.034-1.026a2.967 2.967 0 0 1 .002-.16l-.024-.052-.012.273.031.123.01.037c-.003-.073-.006-.147-.007-.221zm.029.739l-.01-.224-.006-.126-.054-.187a6.057 6.057 0 0 1-.007.127c.013.052.027.104.039.157a.842.842 0 0 1 .019.115c.002.04.006.072.013.11zm-.15.474l.007.038.002.02a.461.461 0 0 0 .047-.027l-.039-.178c-.008.088-.014.136-.014.136zm-1.63-7.888l.01-.008.11.14c.153.171.314.353.48.544.817.89 1.077 2.673 1.132 4.244.006.052.01.106.01.162.04.095.077.191.107.292.023.086.043.18.03.276-.005.044-.007.09-.007.136.052.112.098.23.128.349.041.143.093.284.15.423.044.106.09.211.132.318.292-.488.748-1.162.939-1.425.272-.377.438-.565.606-1.172.167-.607 1.128-3.702 1.4-4.455-.419-.23-1.902-.69-3.093-.92-1.19-.23-2.13-.147-3.216-.042 0 0 .463.458 1.081 1.138z"/>
            </g>
            <g>
                <g>
                    <text dominant-baseline="text-before-edge" style="line-height:18px" fill="#fff"
                          font-family="'Poppins-SemiBold','Poppins-SemiBold'" font-size="30"
                          font-weight="400" transform="translate(60 20)">
                        <tspan style="font-kerning:normal">ts</tspan>
                        <tspan style="font-kerning:normal">dating</tspan>
                    </text>
                </g>
            </g>
            <g>
                <path fill="#fff" d="M89 33h7v4h-7z"/>
                <path fill="url(#we84c)" d="M89 33h7v4h-7z"/>
            </g>
            <g>
                <path fill="#ef019e" d="M155.5 19a3.5 3.5 0 1 1 0 7 3.5 3.5 0 0 1 0-7z"/>
            </g>
            <g>
                <g>
                    <text dominant-baseline="text-before-edge" style="text-transform:uppercase;line-height:18px"
                          fill="#8f55a6" font-family="'Poppins','Poppins-Regular'" font-size="9"
                          font-weight="400" transform="translate(62 47)">
                        <tspan style="font-kerning:normal" letter-spacing="3.6">TS-Dating.com</tspan>
                    </text>
                </g>
            </g>
        </g>
    </g>
</svg>
