<svg xmlns="http://www.w3.org/2000/svg" width="23" height="20" viewBox="0 0 23 20">
    <g>
        <g>
            <path fill="#000"
                  d="M23 6.384c0 1.73-.705 3.302-1.858 4.465l-.352.346v-.534c0-1.164-.961-2.139-2.179-2.139h-1.377c-1.185 0-2.178.944-2.178 2.139v1.478H13.55c-1.185 0-2.178.943-2.178 2.138v1.352c0 1.164.961 2.139 2.178 2.139h.513l-1.986 1.95a.863.863 0 0 1-1.186 0l-8.809-8.649A6.306 6.306 0 0 1 0 6.384C0 2.862 2.915 0 6.503 0 8.52 0 10.315.88 11.5 2.296 12.685.88 14.48 0 16.497 0 20.085 0 23 2.862 23 6.384zm0 7.924v1.353c0 .409-.32.723-.737.723h-2.947v2.893c0 .377-.32.723-.737.723h-1.377a.738.738 0 0 1-.737-.723v-2.893h-2.947a.718.718 0 0 1-.737-.723v-1.353c0-.377.32-.723.737-.723h2.947v-2.893c0-.409.32-.723.737-.723h1.377c.385 0 .737.314.737.723v2.893h2.947c.417 0 .737.314.737.723z"/>
        </g>
    </g>
</svg>
