<svg xmlns="http://www.w3.org/2000/svg" width="14" height="14" viewBox="0 0 14 14">
    <g>
        <g>
            <path fill="#000"
                  d="M14 7A7 7 0 1 1 0 7a7 7 0 0 1 14 0zm-6.076 3.657a.94.94 0 0 0-1.878 0 .94.94 0 0 0 1.878 0zm1.648-5.949c0-.695-.24-1.278-.696-1.687-.45-.404-1.088-.617-1.847-.617-1.452 0-2.455.85-2.554 2.167l-.033.438a.205.205 0 0 0 .185.22l1.114.111a.205.205 0 0 0 .226-.19L6 4.69c.017-.227.055-.757 1.018-.757 1.026 0 1.026.575 1.026.764 0 .599-.266.848-.669 1.226-.473.445-1.122 1.053-1.122 2.3v.45c0 .114.093.206.206.206h1.117a.206.206 0 0 0 .206-.206v-.45c0-.606.268-.858.674-1.237.471-.441 1.117-1.046 1.117-2.278z"/>
        </g>
    </g>
</svg>
