<svg xmlns="http://www.w3.org/2000/svg" width="69" height="60" viewBox="0 0 69 60">
    <g>
        <g>
            <path fill="#000"
                  d="M38.813 0C55.458 0 69 13.46 69 30S55.458 60 38.813 60c-9.684 0-18.847-4.667-24.51-12.485L21.3 42.51c4.047 5.583 10.594 8.918 17.512 8.918 11.889 0 21.562-9.613 21.562-21.428 0-11.815-9.673-21.429-21.562-21.429-10.413 0-19.123 7.375-21.127 17.143h8.19L12.937 38.571 0 25.714h8.97C11.074 11.202 23.635 0 38.813 0zm4.312 17.143v12.573l8.688 5.18-4.439 7.35L34.5 34.57V17.143z"/>
        </g>
    </g>
</svg>
