<svg xmlns="http://www.w3.org/2000/svg" width="12" height="14" viewBox="0 0 12 14">
    <g>
        <g>
            <path fill="#000"
                  d="M.541 5.403L.12 5.127l1.744-1.03V1.619C1.863.725 2.615 0 3.543 0h4.914c.928 0 1.68.725 1.68 1.62v2.477l1.744 1.03-.423.276-1.32.861-.967.63V1.62c0-.38-.32-.688-.714-.688H3.543a.702.702 0 0 0-.714.688v5.275l-.966-.63zm6.535-1.834c.619 0 1.12.483 1.12 1.08C8.196 6.172 6.18 7.274 6 7.274c-.17 0-2.196-1.116-2.196-2.627 0-.596.501-1.08 1.12-1.08.512 0 .942.305 1.076.757.134-.452.564-.756 1.076-.756zM12 6.174v7.018c0 .447-.375.808-.838.808H.838C.375 14 0 13.639 0 13.192V6.174l6 3.913z"/>
        </g>
    </g>
</svg>
