<svg xmlns="http://www.w3.org/2000/svg" width="14" height="14" viewBox="0 0 14 14">
    <g>
        <g>
            <path fill="#000"
                  d="M9.333 8.167V10.5c0 .965-.785 1.75-1.75 1.75h-1.75v.583a1.168 1.168 0 0 1-1.528 1.113l-3.51-1.17A1.176 1.176 0 0 1 0 11.666v-10.5C0 .524.523 0 1.167 0c.028 0 .055.01.083.013C1.272.01 1.29 0 1.312 0h6.27c.966 0 1.75.785 1.75 1.75V3.5a.584.584 0 1 1-1.166 0V1.75a.584.584 0 0 0-.583-.583H4.866l.173.057c.477.166.794.611.794 1.11v8.75h1.75a.584.584 0 0 0 .583-.584V8.167a.583.583 0 1 1 1.167 0zm4.495-1.921l-2.333 2.333a.584.584 0 0 1-.996-.412v-1.75H8.166a.584.584 0 0 1 0-1.167H10.5V3.5a.584.584 0 0 1 .996-.413l2.333 2.334a.583.583 0 0 1 0 .825z"/>
        </g>
    </g>
</svg>
