<svg xmlns="http://www.w3.org/2000/svg" width="14" height="14" viewBox="0 0 14 14">
    <g>
        <g>
            <path fill="#000"
                  d="M11.95 2.05A6.95 6.95 0 0 1 14 6.999c0 5.23-5.514 8.562-10.126 6.261l-3.171.72a.575.575 0 0 1-.688-.687l.72-3.17a6.993 6.993 0 0 1 1.316-8.071 6.999 6.999 0 0 1 9.899 0zM9.035 8.167a.575.575 0 0 0-.575-.575H4.08a.575.575 0 1 0 0 1.149h4.38a.575.575 0 0 0 .575-.574zm1.46-2.335a.575.575 0 0 0-.575-.575H4.08a.575.575 0 1 0 0 1.149h5.84a.575.575 0 0 0 .576-.574z"/>
        </g>
    </g>
</svg>
