<svg xmlns="http://www.w3.org/2000/svg" width="14" height="14" viewBox="0 0 14 14">
    <g>
        <g>
            <path fill="#000"
                  d="M13.364 11.773v.954c0 .702-.571 1.273-1.273 1.273H1.273C.57 14 0 13.43 0 12.727V5.091c0-.702.57-1.273 1.273-1.273h1.1L8.637.172a1.256 1.256 0 0 1 1.728.465l1.827 3.192a1.27 1.27 0 0 1 1.172 1.262v.955a.318.318 0 0 1-.319.318h-2.227a2.549 2.549 0 0 0-2.545 2.545 2.548 2.548 0 0 0 2.545 2.545h2.227c.176 0 .319.143.319.319zM8.68 3.818h2.773l-.693-1.21zm-3.786 0L9.814.955 9.811.953a.625.625 0 0 0-.854-.231l-5.32 3.096zM14 7.955v1.908a.956.956 0 0 1-.955.955h-2.227A1.911 1.911 0 0 1 8.91 8.91c0-1.052.856-1.909 1.91-1.909h2.226c.527 0 .955.429.955.955zm-2.545.954a.637.637 0 1 0-1.275.002.637.637 0 0 0 1.275-.002z"/>
        </g>
    </g>
</svg>
