<svg xmlns="http://www.w3.org/2000/svg" width="16" height="14" viewBox="0 0 16 14">
    <g>
        <g>
            <path fill="#000"
                  d="M4 3.15c0 .58-.448 1.05-1 1.05s-1-.47-1-1.05c0-.58.448-1.05 1-1.05s1 .47 1 1.05zM16 6.3v5.95c0 .964-.748 1.75-1.667 1.75H6.666C5.748 14 5 13.214 5 12.25v-.7h6.702c1.45 0 2.631-1.24 2.631-2.763V4.55c.919 0 1.667.785 1.667 1.75zm-2.667-4.587v7.074c0 .944-.732 1.713-1.632 1.713H1.631c-.58 0-1.086-.321-1.375-.802-.033-.02-.068-.037-.096-.066a.536.536 0 0 1-.124-.492A1.765 1.765 0 0 1 0 8.786V1.713C0 .769.732 0 1.63 0h10.071c.9 0 1.631.769 1.631 1.713zm-12 0v5.944l1.84-1.93a1.13 1.13 0 0 1 1.653 0l.807.845L8.11 3.451c.222-.278.546-.44.891-.441.362.02.67.154.894.43L12 6.02V1.712A.307.307 0 0 0 11.7 1.4H1.631a.306.306 0 0 0-.298.313z"/>
        </g>
    </g>
</svg>
