<svg xmlns="http://www.w3.org/2000/svg" width="14" height="14" viewBox="0 0 14 14">
    <g>
        <g>
            <path fill="#000"
                  d="M13.232 5.48a.873.873 0 0 1 .768.866v1.308c0 .44-.33.814-.77.866l-1.094.14c-.09.278-.201.546-.332.801l.677.872a.868.868 0 0 1-.074 1.157l-.919.92a.867.867 0 0 1-1.154.07l-.872-.677a5.56 5.56 0 0 1-.802.332l-.14 1.097a.874.874 0 0 1-.866.768H6.347a.874.874 0 0 1-.867-.771l-.14-1.094a5.44 5.44 0 0 1-.8-.332l-.872.677a.87.87 0 0 1-1.158-.074l-.92-.918a.867.867 0 0 1-.07-1.155l.677-.872a5.515 5.515 0 0 1-.332-.801L.768 8.52A.874.874 0 0 1 0 7.654V6.346c0-.441.33-.814.77-.866l1.095-.14c.09-.278.201-.546.332-.801l-.677-.871a.87.87 0 0 1 .074-1.16l.919-.917a.868.868 0 0 1 1.154-.071l.872.677c.255-.13.523-.242.802-.332L5.48.769a.874.874 0 0 1 .866-.77h1.307c.441 0 .814.332.867.771l.14 1.095c.278.09.546.202.801.332l.871-.677a.87.87 0 0 1 1.158.074l.919.918a.867.867 0 0 1 .071 1.155l-.677.872c.13.255.241.523.332.801zM7 9.917A2.92 2.92 0 0 0 9.917 7 2.92 2.92 0 0 0 7 4.083 2.92 2.92 0 0 0 4.084 7 2.92 2.92 0 0 0 7 9.917z"/>
        </g>
    </g>
</svg>
