<svg xmlns="http://www.w3.org/2000/svg" width="22" height="20" viewBox="0 0 22 20">
    <g>
        <g>
            <path fill="#000"
                  d="M4.4 7.857v11.429a.724.724 0 0 1-.733.714H.733A.724.724 0 0 1 0 19.286V7.857c0-.394.328-.714.733-.714h2.934c.405 0 .733.32.733.714zm17.04 2.857c1.091 1.188.512 3.079-1.06 3.496.1.245.155.512.155.79 0 .986-.689 1.82-1.622 2.068.612 1.506-.619 2.932-2.2 2.932h-4.797c-2.784 0-4.61-.685-6.049-1.152V8.13c.94-.457 1.656-.753 2.495-1.57 1.245-1.213 1.905-4.194 1.905-5.846 0-.395.328-.714.734-.714h.605c1.664 0 3.042 1.299 3.06 2.92.013.979-.248 3.375-.734 4.223h5.718c1.144 0 2.207.785 2.337 1.893a2.103 2.103 0 0 1-.547 1.678z"/>
        </g>
    </g>
</svg>
