<svg xmlns="http://www.w3.org/2000/svg" width="63" height="60" viewBox="0 0 63 60">
    <g>
        <g>
            <path fill="#000"
                  d="M62.14 24.809l-1.18 1.14a9.515 9.515 0 0 1-.107 1.285 7.716 7.716 0 0 1-.41 1.577 6.599 6.599 0 0 1-1.675 2.5c-.648.604-1.44 1.067-2.358 1.4a9.47 9.47 0 0 1-1.666.43c-.44.074-.897.127-1.38.153l-2.22 2.147v2.938c0 .42-.16.798-.412 1.094a1.69 1.69 0 0 1-.786.518c-.16.05-.327.084-.503.084h-.344l2.456 17.575c.205 1.474-.42 2.35-1.492 2.35-.38 0-.815-.11-1.289-.341L31.5 51.225l-17.276 8.433c-.474.232-.909.342-1.288.342-1.072 0-1.697-.876-1.492-2.35L13.9 40.074H9.485c-.94 0-1.701-.759-1.701-1.695v-6.875L.859 24.809c-1.45-1.403-1.024-2.88.951-3.3l.221-.046v-1.285c0-.162.03-.316.073-.464a1.694 1.694 0 0 1 1.628-1.231h12.32l3.6-.765 9.956-16.425C30.13.43 30.815 0 31.5 0c.684 0 1.37.43 1.892 1.293l9.956 16.425 3.6.765h6.206c2.258 0 4.06.54 5.376 1.595.132.106.265.211.386.327.248.236.466.495.67.764l1.603.341c1.976.42 2.402 1.897.951 3.299zm-2.872.957c0-1.788-.51-3.166-1.526-4.135-1.017-.968-2.546-1.453-4.588-1.453h-9.377V38.38h5.667v-6.754h3.088c1.128 0 2.113-.128 2.955-.383.853-.258 1.56-.647 2.118-1.168a4.982 4.982 0 0 0 1.358-2.193 7.036 7.036 0 0 0 .305-2.115zM9.485 38.38h5.64V24.673h5.753v-4.495H3.732v4.495h5.753zm27.089-.826a7.669 7.669 0 0 0 3.113-3.178c.718-1.362 1.077-3.106 1.077-5.234 0-2.93-.822-5.208-2.466-6.834-1.643-1.627-3.984-2.44-7.022-2.44-2.964 0-5.276.828-6.936 2.483-1.66 1.655-2.49 3.969-2.49 6.94 0 2.127.42 3.899 1.257 5.314.839 1.415 1.932 2.45 3.281 3.104 1.35.654 3.053.981 5.112.981 2.026 0 3.716-.378 5.074-1.136zm-2.49-12.242c.693.79 1.039 2.042 1.039 3.755 0 2.037-.332 3.448-.996 4.234-.664.787-1.602 1.18-2.814 1.18-1.18 0-2.11-.402-2.796-1.205-.684-.802-1.027-2.122-1.027-3.96 0-1.854.345-3.183 1.034-3.985.689-.803 1.602-1.205 2.739-1.205 1.188 0 2.128.396 2.82 1.186zm19.12-.838c.381.397.572.882.572 1.453 0 .587-.22 1.07-.66 1.446-.44.377-1.204.565-2.29.565h-1.383v-4.06h1.606c1.054 0 1.773.2 2.154.596z"/>
        </g>
    </g>
</svg>
