<svg xmlns="http://www.w3.org/2000/svg" width="24" height="20" viewBox="0 0 24 20">
    <g>
        <g>
            <path fill="#000"
                  d="M23.331.358a9.725 9.725 0 0 1-3.126 1.227 4.847 4.847 0 0 0-3.593-1.596c-2.719 0-4.921 2.264-4.921 5.052 0 .396.042.782.127 1.151C7.726 5.982 4.099 3.97 1.67.912a5.145 5.145 0 0 0-.665 2.54c0 1.753.87 3.3 2.19 4.206a4.796 4.796 0 0 1-2.229-.635v.063c0 2.448 1.695 4.49 3.946 4.957a4.8 4.8 0 0 1-2.224.084c.627 2.007 2.444 3.469 4.598 3.51A9.717 9.717 0 0 1 1.174 17.8c-.396 0-.79-.025-1.175-.068A13.694 13.694 0 0 0 7.546 20c9.054 0 14.005-7.702 14.005-14.379l-.017-.654c.965-.71 1.8-1.6 2.46-2.61-.883.4-1.831.673-2.827.796A5.058 5.058 0 0 0 23.331.358z"/>
        </g>
    </g>
</svg>
