<svg xmlns="http://www.w3.org/2000/svg" width="23" height="24" viewBox="0 0 23 24">
    <g>
        <g>
            <path fill="#000"
                  d="M7.893 8.89C7.893 6.19 8.496 4 12 4c3.503 0 4.107 2.19 4.107 4.89 0 2.701-1.839 4.891-4.107 4.891-2.268 0-4.107-2.19-4.107-4.89zm11.864 12.487v.366S18.615 24 12 24s-7.757-2.257-7.757-2.257v-.494c.001.043.004.023.011-.35.088-4.582.753-5.903 5.497-6.743 0 0 .675.844 2.25.844 1.573 0 2.248-.844 2.248-.844 4.797.85 5.424 2.19 5.5 6.895.004.301.007.353.008.326zM2.965 8.937c0-2.195.49-3.973 3.335-3.973.479 0 .89.05 1.245.145-.657 1.187-.747 2.63-.747 3.781 0 1.304.36 2.55 1.024 3.58-.456.28-.973.438-1.522.438-1.842 0-3.335-1.778-3.335-3.972zm1.395 6.547c-.94 1.264-1.157 2.963-1.202 5.458C.538 20.434 0 19.374 0 19.374v-.298c0 .024.003-.018.007-.263.062-3.822.57-4.911 4.467-5.6 0 0 .548.685 1.826.685.053 0 .104-.002.155-.004-.812.359-1.551.859-2.095 1.59zM20.5 0a2.5 2.5 0 1 1 0 5 2.5 2.5 0 0 1 0-5z"/>
        </g>
    </g>
</svg>
