<svg xmlns="http://www.w3.org/2000/svg" width="24" height="20" viewBox="0 0 24 20">
    <g>
        <g>
            <path fill="#000"
                  d="M7.893 4.891c0-2.701.604-4.89 4.107-4.89s4.107 2.189 4.107 4.89c0 2.701-1.839 4.89-4.107 4.89-2.268 0-4.107-2.189-4.107-4.89zm11.864 12.487v.365S18.615 20 12 20s-7.757-2.257-7.757-2.257v-.494c.001.044.004.024.011-.35.088-4.582.753-5.903 5.497-6.742 0 0 .675.843 2.25.843 1.573 0 2.248-.843 2.248-.843 4.797.849 5.424 2.19 5.5 6.895.005.3.007.352.008.326zm-3.58-8.908c.665-1.03 1.025-2.275 1.025-3.579 0-1.152-.09-2.594-.747-3.782A4.847 4.847 0 0 1 17.7.964c2.845 0 3.335 1.778 3.335 3.972S19.542 8.908 17.7 8.908a2.898 2.898 0 0 1-1.522-.438zM24 15.077v.298s-.537 1.06-3.158 1.568c-.045-2.495-.261-4.194-1.202-5.458-.544-.732-1.283-1.232-2.095-1.59.05.002.102.003.155.003 1.278 0 1.826-.685 1.826-.685 3.896.69 4.405 1.779 4.467 5.6.004.246.006.287.007.264zM2.965 4.937c0-2.195.49-3.973 3.335-3.973.479 0 .89.05 1.245.145-.657 1.188-.747 2.63-.747 3.782 0 1.304.36 2.549 1.024 3.58-.456.279-.973.437-1.522.437-1.842 0-3.335-1.778-3.335-3.972zm1.395 6.548c-.94 1.264-1.157 2.963-1.202 5.458C.538 16.435 0 15.375 0 15.375v-.298a2.32 2.32 0 0 0 .007-.264c.062-3.822.571-4.91 4.467-5.6 0 0 .548.685 1.826.685.053 0 .104-.001.155-.004-.812.36-1.55.859-2.095 1.59z"/>
        </g>
    </g>
</svg>
