<svg xmlns="http://www.w3.org/2000/svg" width="14" height="14" viewBox="0 0 14 14">
    <g>
        <g>
            <path fill="#000"
                  d="M14 5.455v6.909c0 .903-.723 1.636-1.615 1.636H1.615A1.626 1.626 0 0 1 0 12.364v-6.91c0-.903.723-1.636 1.615-1.636h10.77c.892 0 1.615.733 1.615 1.637zM8.939 8.69L5.51 6.655a.302.302 0 0 0-.34 0 .329.329 0 0 0-.144.309v4.073a.328.328 0 0 0 .143.308l.162.055a.298.298 0 0 0 .18-.055L8.938 9.31a.348.348 0 0 0 0-.618zm-7.45-6.327c0-.201.161-.364.36-.364h10.32c.198 0 .36.163.36.364 0 .2-.162.363-.36.363H1.85a.361.361 0 0 1-.36-.363zm1.526-2c0-.2.161-.364.36-.364h7.25c.199 0 .36.163.36.364 0 .2-.161.363-.36.363h-7.25a.361.361 0 0 1-.36-.363z"/>
        </g>
    </g>
</svg>
