<svg xmlns="http://www.w3.org/2000/svg" width="15" height="14" viewBox="0 0 15 14">
    <g>
        <g>
            <path fill="#000"
                  d="M14.707 12.9c-.396.69-1.14 1.1-1.941 1.1H2.203a2.18 2.18 0 0 1-1.912-1.1 2.133 2.133 0 0 1 .021-2.187L5.6 1.08l.009-.015A2.186 2.186 0 0 1 7.499 0C8.283 0 8.99.398 9.39 1.065l5.305 9.663c.4.665.408 1.483.012 2.172zM6.62 7.906c0 .481.394.87.88.87s.88-.389.88-.87V4.424c0-.48-.394-.87-.88-.87s-.88.39-.88.87zm2.2 3.047c0-.72-.592-1.305-1.32-1.305-.727 0-1.32.585-1.32 1.305s.593 1.306 1.32 1.306c.728 0 1.32-.586 1.32-1.306z"/>
        </g>
    </g>
</svg>
